<svg version="1.1" xmlns="http://www.w3.org/2000/svg" xmlns:xlink="http://www.w3.org/1999/xlink">
  <symbol id="mobilePhone" viewBox="0 0 25 25" fill="currentColor">
    <path d="M16.672 1.3335H8.67197C7.29197 1.3335 6.17197 2.4535 6.17197 3.8335V20.8335C6.17197 22.2135 7.29197 23.3335 8.67197 23.3335H16.672C18.052 23.3335 19.172 22.2135 19.172 20.8335V3.8335C19.172 2.4535 18.052 1.3335 16.672 1.3335ZM12.672 22.3335C11.842 22.3335 11.172 21.6635 11.172 20.8335C11.172 20.0035 11.842 19.3335 12.672 19.3335C13.502 19.3335 14.172 20.0035 14.172 20.8335C14.172 21.6635 13.502 22.3335 12.672 22.3335ZM17.172 18.3335H8.17197V4.3335H17.172V18.3335Z" fill="currentColor"/>
  </symbol>
  
  <symbol id="fb" viewBox="0 0 25 24" fill="currentColor">
    <path d="M24.0561 12.0001C24.0561 5.37208 18.684 0 12.056 0 5.42805 0 .0559692 5.37208.0559692 12.0001c0 5.9901 4.3857708 10.9545 10.1260308 11.8554v-8.3836H7.13765v-3.4718H10.182V9.35676c0-3.00495 1.7885-4.66852 4.5305-4.66852 1.3151 0 2.6893.23671 2.6893.23671V7.8773h-1.5123c-1.4926 0-1.9529.92713-1.9529 1.87398v2.24882h3.3271l-.5326 3.4718h-2.7945v8.3836c5.7337-.9009 10.1195-5.8653 10.1195-11.8554z" fill="currentColor"/>
  </symbol>

  <symbol id="vk" viewBox="0 0 25 24" fill="currentColor">
    <path d="M.0560303 11.5c0-5.42115 0-8.13173 1.6841397-9.81587C3.4243 0 6.13488 0 11.556 0h1c5.4212 0 8.1318 0 9.8159 1.68413C24.056 3.36827 24.056 6.07885 24.056 11.5v1c0 5.4212 0 8.1318-1.6841 9.8158C20.6878 24 17.9772 24 12.556 24h-1c-5.42112 0-8.1317 0-9.81583-1.6842C.0560303 20.6318.0560303 17.9212.0560303 12.5v-1z" fill="currentColor"/>
    <path fill-rule="evenodd" clip-rule="evenodd" d="M6.55648 7.5h-1.7504c-.50012 0-.60015.2354-.60015.4949 0 .46355.59343 2.7625 2.7631 5.803C8.41548 15.8744 10.4534 17 12.3078 17c1.1127 0 1.2503-.25 1.2503-.6806V14.75c0-.5.1054-.5998.4577-.5998.2597 0 .7047.1298 1.7432 1.1309C16.9459 16.4677 17.1415 17 17.8091 17h1.7504c.5001 0 .7502-.25.6059-.7433-.1578-.4917-.7245-1.2052-1.4764-2.0509-.408-.482-1.0199-1.0011-1.2054-1.2607-.2596-.3337-.1854-.4821 0-.7787 0 0 2.1326-3.00345 2.3552-4.0231.1112-.37085 0-.6433-.5294-.6433H17.559c-.445 0-.6502.2354-.7615.4949 0 0-.8901 2.1692-2.1511 3.5782-.408.4079-.5935.5377-.816.5377-.1113 0-.2723-.1298-.2723-.5005v-3.467c0-.445-.1292-.6433-.5001-.6433h-2.7507c-.2781 0-.44537.2065-.44537.40225 0 .4218.63047.5191.69547 1.70565v2.5771c0 .565-.1021.6675-.3246.6675-.59337 0-2.03682-2.1789-2.89292-4.67215-.16775-.4846-.33605-.68035-.7834-.68035z" fill="white"/>
  </symbol>

  <symbol id="ok" viewBox="0 0 25 24" fill="currentColor">
    <path fill-rule="evenodd" clip-rule="evenodd" d="M14.9396 6.75118c0-1.31306-1.0758-2.38078-2.3983-2.38078-1.3214 0-2.3982 1.06772-2.3982 2.38078 0 1.31203 1.0768 2.38044 2.3982 2.38044 1.3225 0 2.3983-1.06841 2.3983-2.38044zm3.3939 0c0 3.17048-2.5972 5.74942-5.7922 5.74942-3.19428 0-5.79214-2.57894-5.79214-5.74942C6.74916 3.57967 9.34702 1 12.5413 1c3.195 0 5.7922 2.57967 5.7922 5.75118zm-.0705 9.06052c-1.0473.653-2.1844 1.1162-3.3634 1.3829l3.238 3.2152c.6633.6572.6633 1.7246 0 2.3825-.6627.6579-1.7367.6579-2.3986 0l-3.1836-3.1595-3.18074 3.1595c-.33167.3286-.76626.4931-1.20085.4931-.4339 0-.8678-.1645-1.19947-.4931-.66263-.6579-.66263-1.7246-.00069-2.3825l3.23835-3.2152c-1.17906-.2667-2.31614-.7305-3.36346-1.3829-.7926-.4962-1.03069-1.5357-.53129-2.3234.49802-.7886 1.54534-1.0261 2.33932-.5299 2.37123 1.481 5.42583 1.4814 7.79843 0 .794-.4962 1.841-.2587 2.34.5299.4994.787.2606 1.8272-.532 2.3234z" fill="currentColor"/>
  </symbol>

  <symbol id="inst" viewBox="0 0 23 22" fill="currentColor">
    <path fill-rule="evenodd" clip-rule="evenodd" d="M5.05734 21.9892C4.56671 21.9718 3.93437 21.9334 3.64697 21.8754C3.20824 21.7868 2.79393 21.6524 2.44937 21.4768C2.04455 21.2705 1.68173 21.0073 1.36844 20.6945C1.05444 20.3811 0.790157 20.0179 0.583018 19.6125C0.407898 19.2698 0.273648 18.858 0.184675 18.4218C0.125498 18.1315 0.0863605 17.4944 0.0686187 17.0006C0.061424 16.7988 0.0577325 16.5376 0.0577325 16.4171L0.0559998 5.5846C0.0559998 5.46463 0.0596536 5.20336 0.0668106 5.00131C0.084251 4.51072 0.122635 3.87838 0.180682 3.59097C0.26924 3.15228 0.403604 2.73793 0.579176 2.39337C0.785523 1.98851 1.04871 1.62577 1.36151 1.31244C1.67491 0.998476 2.03811 0.734195 2.4435 0.527019C2.78624 0.351936 3.19803 0.217648 3.63423 0.128675C3.92454 0.0694982 4.56163 0.0303607 5.05542 0.0126566C5.25718 0.00542425 5.51841 0.00173275 5.63887 0.00173275L16.4714 0C16.5914 0 16.8527 0.00361617 17.0547 0.0108108C17.5453 0.028289 18.1777 0.0666354 18.465 0.124682C18.9038 0.213278 19.3181 0.347642 19.6626 0.523176C20.0674 0.729524 20.4303 0.992751 20.7436 1.30551C21.0575 1.61895 21.3218 1.98207 21.529 2.3875C21.7041 2.73024 21.8384 3.142 21.9273 3.57823C21.9865 3.86854 22.0256 4.50567 22.0434 4.99942C22.0506 5.20121 22.0543 5.46241 22.0543 5.58287L22.056 16.4154C22.056 16.5354 22.0524 16.7967 22.0452 16.9987C22.0277 17.4893 21.9894 18.1216 21.9313 18.409C21.8428 18.8478 21.7084 19.2621 21.5328 19.6066C21.3265 20.0115 21.0632 20.3743 20.7505 20.6876C20.4371 21.0015 20.0739 21.2658 19.6685 21.473C19.3258 21.6481 18.914 21.7824 18.4778 21.8713C18.1875 21.9305 17.5504 21.9696 17.0566 21.9873C16.8548 21.9946 16.5936 21.9983 16.4731 21.9983L5.6406 22C5.52059 22 5.25932 21.9964 5.05734 21.9892Z" fill="currentColor"/>
    <mask id="mask0" mask-type="alpha" maskUnits="userSpaceOnUse" x="0" y="0" width="23" height="22">
      <path fill-rule="evenodd" clip-rule="evenodd" d="M5.05734 21.9892C4.56671 21.9718 3.93437 21.9334 3.64697 21.8754C3.20824 21.7868 2.79393 21.6524 2.44937 21.4768C2.04455 21.2705 1.68173 21.0073 1.36844 20.6945C1.05444 20.3811 0.790157 20.0179 0.583018 19.6125C0.407898 19.2698 0.273648 18.858 0.184675 18.4218C0.125498 18.1315 0.0863605 17.4944 0.0686187 17.0006C0.061424 16.7988 0.0577325 16.5376 0.0577325 16.4171L0.0559998 5.5846C0.0559998 5.46463 0.0596536 5.20336 0.0668106 5.00131C0.084251 4.51072 0.122635 3.87838 0.180682 3.59097C0.26924 3.15228 0.403604 2.73793 0.579176 2.39337C0.785523 1.98851 1.04871 1.62577 1.36151 1.31244C1.67491 0.998476 2.03811 0.734195 2.4435 0.527019C2.78624 0.351936 3.19803 0.217648 3.63423 0.128675C3.92454 0.0694982 4.56163 0.0303607 5.05542 0.0126566C5.25718 0.00542425 5.51841 0.00173275 5.63887 0.00173275L16.4714 0C16.5914 0 16.8527 0.00361617 17.0547 0.0108108C17.5453 0.028289 18.1777 0.0666354 18.465 0.124682C18.9038 0.213278 19.3181 0.347642 19.6626 0.523176C20.0674 0.729524 20.4303 0.992751 20.7436 1.30551C21.0575 1.61895 21.3218 1.98207 21.529 2.3875C21.7041 2.73024 21.8384 3.142 21.9273 3.57823C21.9865 3.86854 22.0256 4.50567 22.0434 4.99942C22.0506 5.20121 22.0543 5.46241 22.0543 5.58287L22.056 16.4154C22.056 16.5354 22.0524 16.7967 22.0452 16.9987C22.0277 17.4893 21.9894 18.1216 21.9313 18.409C21.8428 18.8478 21.7084 19.2621 21.5328 19.6066C21.3265 20.0115 21.0632 20.3743 20.7505 20.6876C20.4371 21.0015 20.0739 21.2658 19.6685 21.473C19.3258 21.6481 18.914 21.7824 18.4778 21.8713C18.1875 21.9305 17.5504 21.9696 17.0566 21.9873C16.8548 21.9946 16.5936 21.9983 16.4731 21.9983L5.6406 22C5.52059 22 5.25932 21.9964 5.05734 21.9892Z" fill="white"/>
    </mask>
    <g mask="url(#mask0)">
      <path fill-rule="evenodd" clip-rule="evenodd" d="M11.1022 2.8299C8.89206 2.8299 8.61469 2.83961 7.74665 2.87934C6.88031 2.91923 6.28896 3.05716 5.77153 3.25953C5.23629 3.46855 4.78227 3.74815 4.32994 4.20319C3.87727 4.65806 3.59922 5.11463 3.39069 5.65269C3.18894 6.1732 3.05161 6.76803 3.01262 7.6389C2.9738 8.5118 2.96362 8.79089 2.96362 11.0134C2.96362 13.2359 2.97346 13.514 3.01279 14.3869C3.05263 15.2581 3.18979 15.8527 3.39086 16.3731C3.59889 16.9113 3.87693 17.3679 4.32943 17.8228C4.78159 18.278 5.23561 18.5582 5.77051 18.7673C6.28828 18.9696 6.8798 19.1076 7.74598 19.1475C8.61402 19.1872 8.89121 19.1969 11.1012 19.1969C13.3114 19.1969 13.5879 19.1872 14.456 19.1475C15.3223 19.1076 15.9144 18.9696 16.4321 18.7673C16.9672 18.5582 17.4205 18.278 17.8727 17.8228C18.3254 17.3679 18.6034 16.9113 18.812 16.3732C19.012 15.8527 19.1493 15.2579 19.19 14.387C19.229 13.5141 19.2392 13.2359 19.2392 11.0134C19.2392 8.79089 19.229 8.51197 19.19 7.63907C19.1493 6.76786 19.012 6.1732 18.812 5.65286C18.6034 5.11463 18.3254 4.65806 17.8727 4.20319C17.42 3.74798 16.9674 3.46838 16.4316 3.25953C15.9128 3.05716 15.3211 2.91923 14.4548 2.87934C13.5868 2.83961 13.3104 2.8299 11.0996 2.8299H11.1022ZM10.3726 4.30505C10.5143 4.30483 10.6668 4.3049 10.8314 4.30497L11.1026 4.30505C13.2754 4.30505 13.5329 4.3129 14.391 4.35211C15.1844 4.38859 15.615 4.52192 15.9019 4.63393C16.2817 4.78225 16.5524 4.95956 16.8371 5.24599C17.1219 5.53241 17.2982 5.80519 17.4461 6.18709C17.5575 6.47522 17.6902 6.90826 17.7263 7.70615C17.7653 8.56883 17.7738 8.82797 17.7738 11.0119C17.7738 13.1959 17.7653 13.4551 17.7263 14.3177C17.69 15.1156 17.5575 15.5487 17.4461 15.8368C17.2986 16.2187 17.1219 16.4906 16.8371 16.7769C16.5523 17.0633 16.2818 17.2406 15.9019 17.3889C15.6154 17.5015 15.1844 17.6344 14.391 17.6709C13.5331 17.7101 13.2754 17.7187 11.1026 17.7187C8.92962 17.7187 8.67209 17.7101 7.81423 17.6709C7.02078 17.6341 6.59016 17.5008 6.30313 17.3888C5.92336 17.2404 5.6521 17.0631 5.36727 16.7767C5.08245 16.4903 4.90613 16.2182 4.75829 15.8361C4.6469 15.548 4.51415 15.1149 4.47804 14.3171C4.43905 13.4544 4.43125 13.1952 4.43125 11.0099C4.43125 8.82456 4.43905 8.56678 4.47804 7.7041C4.51432 6.90621 4.6469 6.47317 4.75829 6.1847C4.90579 5.8028 5.08245 5.53002 5.36727 5.2436C5.6521 4.95718 5.92336 4.77987 6.30313 4.6312C6.58999 4.51868 7.02078 4.3857 7.81423 4.34904C8.56494 4.31494 8.85587 4.30471 10.3726 4.30301V4.30505ZM14.4687 6.64485C14.4687 6.10252 14.9061 5.66317 15.4452 5.66317V5.66283C15.9843 5.66283 16.4217 6.10269 16.4217 6.64485C16.4217 7.18701 15.9843 7.62687 15.4452 7.62687C14.9061 7.62687 14.4687 7.18701 14.4687 6.64485ZM11.1024 6.81131C8.79454 6.8114 6.92344 8.69306 6.92344 11.0139C6.92344 13.3348 8.79464 15.2156 11.1026 15.2156C13.4105 15.2156 15.281 13.3348 15.281 11.0139C15.281 8.693 13.4103 6.81131 11.1024 6.81131ZM13.8138 11.0139C13.8138 9.50724 12.5992 8.28602 11.1012 8.28602C9.60298 8.28602 8.38858 9.50724 8.38858 11.0139C8.38858 12.5203 9.60298 13.7417 11.1012 13.7417C12.5992 13.7417 13.8138 12.5203 13.8138 11.0139Z" fill="white"/>
    </g>
  </symbol>
  <symbol id="whatsapp" viewBox="0 0 25 25" fill="currentColor">
    <path d="M0.671875 12.3335C0.671875 5.70608 6.04446 0.333496 12.6719 0.333496C19.2993 0.333496 24.6719 5.70608 24.6719 12.3335C24.6719 18.9609 19.2993 24.3335 12.6719 24.3335C6.04446 24.3335 0.671875 18.9609 0.671875 12.3335Z" fill="#25D366"/>
    <path fill-rule="evenodd" clip-rule="evenodd" d="M17.5719 7.346C16.2594 6.0335 14.5094 5.3335 12.6719 5.3335C8.82187 5.3335 5.67188 8.4835 5.67188 12.3335C5.67188 13.5585 6.02188 14.7835 6.63438 15.8335L5.67188 19.3335L9.34689 18.371C10.3969 18.896 11.5344 19.246 12.6719 19.246C16.5219 19.246 19.6719 16.096 19.6719 12.246C19.6719 10.4085 18.8844 8.6585 17.5719 7.346ZM12.6719 18.1085C11.6219 18.1085 10.5719 17.846 9.69688 17.321L9.52187 17.2335L7.33437 17.846L7.94688 15.746L7.77187 15.4835C7.15937 14.521 6.89687 13.471 6.89687 12.421C6.89687 9.271 9.52188 6.646 12.6719 6.646C14.2469 6.646 15.6469 7.2585 16.7844 8.3085C17.9219 9.446 18.4469 10.846 18.4469 12.421C18.4469 15.4835 15.9094 18.1085 12.6719 18.1085ZM15.8219 13.7335C15.6469 13.646 14.7719 13.2085 14.5969 13.2085C14.4219 13.121 14.3344 13.121 14.2469 13.296C14.1594 13.471 13.8094 13.821 13.7219 13.996C13.6344 14.0835 13.5469 14.0835 13.3719 14.0835C13.1969 13.996 12.6719 13.821 11.9719 13.2085C11.4469 12.771 11.0969 12.1585 11.0094 11.9835C10.9219 11.8085 11.0094 11.721 11.0969 11.6335C11.1844 11.546 11.2719 11.4585 11.3594 11.371C11.4469 11.2835 11.4469 11.196 11.5344 11.1085C11.6219 11.021 11.5344 10.9335 11.5344 10.846C11.5344 10.7585 11.1844 9.8835 11.0094 9.5335C10.9219 9.271 10.7469 9.271 10.6594 9.271C10.5719 9.271 10.4844 9.271 10.3094 9.271C10.2219 9.271 10.0469 9.271 9.87186 9.446C9.69686 9.621 9.25938 10.0585 9.25938 10.9335C9.25938 11.8085 9.87187 12.596 9.95937 12.771C10.0469 12.8585 11.1844 14.696 12.9344 15.396C14.4219 16.0085 14.6844 15.8335 15.0344 15.8335C15.3844 15.8335 16.0844 15.396 16.1719 15.046C16.3469 14.6085 16.3469 14.2585 16.2594 14.2585C16.1719 13.821 15.9969 13.821 15.8219 13.7335Z" fill="white"/>
  </symbol>

  <symbol id="viber" viewBox="0 0 25 25" fill="currentColor">
    <path d="M0.671875 12.3335C0.671875 5.70608 6.04446 0.333496 12.6719 0.333496C19.2993 0.333496 24.6719 5.70608 24.6719 12.3335C24.6719 18.9609 19.2993 24.3335 12.6719 24.3335C6.04446 24.3335 0.671875 18.9609 0.671875 12.3335Z" fill="#7F4DA0"/>
    <path d="M15.1318 11.1996C15.0921 10.8774 14.993 10.6243 14.8171 10.4002C14.5887 10.1116 14.2968 9.93876 13.8647 9.83624C13.583 9.7679 13.4693 9.77575 13.3674 9.86879C13.2725 9.95596 13.254 10.1307 13.3265 10.2439C13.3775 10.326 13.4363 10.3554 13.5999 10.3876C13.8178 10.4276 13.9683 10.4797 14.1053 10.558C14.396 10.7258 14.5314 10.9885 14.5459 11.4137C14.5527 11.6134 14.5699 11.6748 14.6396 11.7456C14.7689 11.8751 14.9989 11.8499 15.0965 11.695C15.1323 11.6366 15.1378 11.6112 15.1416 11.4756C15.144 11.3917 15.1404 11.2667 15.1318 11.1996Z" fill="white"/>
    <path d="M16.2704 11.563C16.2129 10.5757 15.8268 9.78131 15.1356 9.22242C14.7462 8.90838 14.2755 8.69244 13.7596 8.58742C13.5706 8.54986 13.2226 8.51942 13.1629 8.53683C13.1066 8.55296 13.0269 8.61395 12.9914 8.66911C12.9538 8.72893 12.9454 8.86248 12.9774 8.93974C13.0291 9.06888 13.1253 9.11451 13.3947 9.13808C13.81 9.17441 14.2384 9.32032 14.562 9.53633C14.9315 9.78228 15.2253 10.1187 15.4153 10.514C15.5795 10.8536 15.6804 11.3431 15.6776 11.7814C15.6767 11.9399 15.7012 12.0294 15.7649 12.0949C15.8612 12.1955 16.0014 12.2175 16.1252 12.1507C16.2624 12.0785 16.2945 11.9519 16.2704 11.563Z" fill="white"/>
    <path d="M17.5303 15.3652C17.511 15.3088 17.4659 15.2217 17.4337 15.1718C17.2309 14.8655 16.1412 14.0127 15.5971 13.7338C15.2865 13.5742 15.0563 13.521 14.8857 13.5709C14.7022 13.6226 14.6056 13.708 14.2981 14.0901C14.1742 14.2432 14.047 14.3867 14.0132 14.4092C13.9295 14.4673 13.7653 14.5141 13.6494 14.5141C13.3806 14.5124 12.8929 14.3383 12.5178 14.1094C12.2265 13.9321 11.8531 13.6145 11.5665 13.3001C11.2285 12.931 10.9983 12.6053 10.8164 12.2378C10.5814 11.7654 10.5219 11.4768 10.62 11.2656C10.6442 11.2125 10.6764 11.156 10.6909 11.1383C10.7054 11.1222 10.8567 10.998 11.0241 10.8626C11.3524 10.6015 11.4056 10.5418 11.4667 10.3629C11.544 10.1356 11.5231 9.90342 11.404 9.66968C11.3122 9.49234 11.0724 9.10544 10.8985 8.85557C10.6683 8.52671 10.0953 7.82384 9.98099 7.72869C9.77496 7.56105 9.511 7.53202 9.21962 7.64489C8.9122 7.76418 8.33592 8.22846 8.08964 8.5525C7.86751 8.8459 7.78222 9.05385 7.76933 9.32791C7.75807 9.55359 7.77738 9.6471 7.8965 9.93567C8.82849 12.1991 10.2192 14.0062 12.1299 15.441C13.1279 16.1906 14.1629 16.7613 15.2366 17.1515C15.8627 17.3787 16.1347 17.39 16.4551 17.203C16.5903 17.1224 16.9251 16.779 17.1118 16.5292C17.4209 16.1132 17.5352 15.9214 17.5673 15.7683C17.5899 15.6635 17.5722 15.4813 17.5303 15.3652Z" fill="white"/>
    <path d="M17.4295 11.7898C17.4089 11.2313 17.3148 10.7732 17.1188 10.2624C16.9252 9.76003 16.7293 9.43219 16.3593 8.98877C16.0095 8.57302 15.7378 8.33563 15.3068 8.07139C14.7056 7.70322 13.974 7.45958 13.1541 7.35711C12.8744 7.3213 12.8112 7.32386 12.7254 7.3811C12.5591 7.48953 12.5614 7.76 12.7281 7.86681C12.7833 7.90078 12.8323 7.91316 13.056 7.94244C13.3993 7.98866 13.6201 8.03223 13.8821 8.10371C14.9094 8.38453 15.6994 8.95855 16.2276 9.81066C16.6696 10.5209 16.853 11.2312 16.827 12.1384C16.8179 12.445 16.8245 12.499 16.8714 12.5727C16.9612 12.71 17.1979 12.7372 17.3194 12.6232C17.3949 12.5538 17.4092 12.5016 17.4241 12.2392C17.4312 12.1022 17.4327 11.9001 17.4295 11.7898Z" fill="white"/>
  </symbol>

  <symbol id="skype" viewBox="0 0 25 25" fill="currentColor">
    <path d="M0.671875 12.3335C0.671875 5.70608 6.04446 0.333496 12.6719 0.333496C19.2993 0.333496 24.6719 5.70608 24.6719 12.3335C24.6719 18.9609 19.2993 24.3335 12.6719 24.3335C6.04446 24.3335 0.671875 18.9609 0.671875 12.3335Z" fill="#0078D7"/>
    <path d="M12.7356 16.3953C10.4023 16.3953 9.36524 15.1855 9.36524 14.3213C9.36524 14.1484 9.4517 13.8892 9.62454 13.8028C9.79738 13.6299 9.97019 13.6299 10.143 13.6299C11.0937 13.6299 10.8344 15.099 12.7356 15.099C13.6862 15.099 14.2048 14.4941 14.2048 13.9756C14.2048 13.6299 14.0319 13.2842 13.427 13.1114L11.3529 12.5929C9.71096 12.1608 9.45169 11.2102 9.45169 10.4324C9.45169 8.61757 11.0937 8.01263 12.6492 8.01263C14.0319 8.01263 15.7603 8.79041 15.7603 9.82745C15.7603 10.2595 15.4146 10.5188 14.8961 10.5188C14.0319 10.5188 14.2048 9.30893 12.4764 9.30893C11.6122 9.30893 11.1801 9.74103 11.1801 10.2595C11.1801 10.7781 11.8714 11.0373 12.3899 11.1237L13.9455 11.4694C15.5875 11.8151 16.0196 12.8521 16.0196 13.7163C16.0196 15.3583 14.8961 16.3953 12.7356 16.3953ZM19.1307 13.3707C19.2171 13.025 19.2171 12.5929 19.2171 12.2472C19.2171 10.346 18.3529 8.53115 16.8838 7.23485C15.4146 5.93856 13.427 5.50646 11.5257 5.76572C11.0072 5.50646 10.3159 5.33362 9.62454 5.33362C8.24182 5.33362 6.9455 6.1114 6.25414 7.32127C5.56279 8.53115 5.56279 10.0003 6.25414 11.2102C5.90847 13.2842 6.51338 15.4447 8.06894 17.0003C9.53807 18.4694 11.6986 19.1608 13.7727 18.8151C14.3776 19.1608 14.9826 19.3336 15.6739 19.3336C17.0566 19.3336 18.3529 18.5558 19.0443 17.346C19.7356 16.0497 19.8221 14.5805 19.1307 13.3707Z" fill="white"/>
  </symbol>
  
  <symbol id="tg" viewBox="0 0 25 25" fill="currentColor">
    <path d="M0.671875 12.3335C0.671875 5.70608 6.04446 0.333496 12.6719 0.333496C19.2993 0.333496 24.6719 5.70608 24.6719 12.3335C24.6719 18.9609 19.2993 24.3335 12.6719 24.3335C6.04446 24.3335 0.671875 18.9609 0.671875 12.3335Z" fill="#0088CC"/>
    <path d="M5.50139 12.0086C8.74048 10.5974 10.9004 9.667 11.9811 9.2175C15.0667 7.93407 15.7079 7.71112 16.1258 7.70368C16.2177 7.70214 16.4233 7.72492 16.5564 7.83294C16.6688 7.92415 16.6997 8.04737 16.7145 8.13384C16.7293 8.22032 16.7477 8.41732 16.7331 8.57125C16.5659 10.3282 15.8424 14.5917 15.4743 16.5595C15.3185 17.3922 15.0118 17.6713 14.7149 17.6987C14.0697 17.758 13.5797 17.2722 12.9548 16.8626C11.9769 16.2215 11.4244 15.8225 10.4752 15.197C9.37816 14.4741 10.0893 14.0767 10.7145 13.4274C10.8781 13.2575 13.721 10.6716 13.7761 10.437C13.7829 10.4077 13.7893 10.2983 13.7244 10.2406C13.6594 10.1828 13.5635 10.2026 13.4943 10.2183C13.3962 10.2405 11.834 11.2731 8.80761 13.316C8.36418 13.6205 7.96253 13.7689 7.60267 13.7611C7.20594 13.7525 6.44281 13.5368 5.8755 13.3524C5.17967 13.1262 4.62664 13.0066 4.6748 12.6225C4.69988 12.4224 4.97541 12.2178 5.50139 12.0086Z" fill="white"/>
  </symbol>

  <symbol id="tel" viewBox="0 0 18 18" fill="currentColor">
    <path d="M3.62 7.79C5.06 10.62 7.38 12.93 10.21 14.38L12.41 12.18C12.68 11.91 13.08 11.82 13.43 11.94C14.55 12.31 15.76 12.51 17 12.51C17.55 12.51 18 12.96 18 13.51V17C18 17.55 17.55 18 17 18C7.61 18 0 10.39 0 1C0 0.45 0.45 0 1 0H4.5C5.05 0 5.5 0.45 5.5 1C5.5 2.25 5.7 3.45 6.07 4.57C6.18 4.92 6.1 5.31 5.82 5.59L3.62 7.79Z"
      fill="currentColor"></path>
  </symbol>
</svg>
