<svg version="1.1" xmlns="http://www.w3.org/2000/svg" xmlns:xlink="http://www.w3.org/1999/xlink">
  <symbol id="dashboard" viewBox="0 0 48 48" fill="currentColor">
    <path fill-rule="evenodd" clip-rule="evenodd" d="M24 8.5A23.5 23.5 0 001.6 39.15c.07.2.27.35.48.35h43.84a.5.5 0 00.47-.35A23.5 23.5 0 0024 8.5zm-9.34 4.72a.5.5 0 01.21-.7 21.37 21.37 0 017.51-1.96.5.5 0 01.53.5v1.91c0 .28.22.5.5.5h1.3a.5.5 0 00.5-.5v-1.9a.5.5 0 01.52-.5c2.66.21 5.19.9 7.49 2a.5.5 0 01.2.69l-.95 1.66a.5.5 0 00.18.69l1.12.64a.5.5 0 00.69-.18l.96-1.67a.5.5 0 01.7-.16 21.62 21.62 0 015.51 5.45.5.5 0 01-.16.7l-1.7.99a.5.5 0 00-.18.68l.64 1.13a.5.5 0 00.69.18l1.72-1a.5.5 0 01.7.2 21.36 21.36 0 012.08 7.53.5.5 0 01-.5.54h-2.06a.5.5 0 00-.5.5v1.3c0 .27.23.5.5.5h2.1a.5.5 0 01.5.51 21.46 21.46 0 01-.57 3.68.5.5 0 01-.48.37H3.59a.5.5 0 01-.48-.37c-.29-1.2-.48-2.42-.56-3.68a.5.5 0 01.5-.52h2.2a.5.5 0 00.5-.5v-1.3a.5.5 0 00-.5-.5H3.06a.5.5 0 01-.49-.53c.24-2.7.97-5.25 2.11-7.56a.5.5 0 01.69-.2l1.8 1.04a.5.5 0 00.7-.19l.64-1.12a.5.5 0 00-.18-.68l-1.78-1.03a.5.5 0 01-.16-.7c1.5-2.15 3.4-4 5.56-5.48a.5.5 0 01.7.17l1 1.72a.5.5 0 00.68.18l1.12-.65a.5.5 0 00.18-.68l-.98-1.7zm18.67 8.32a.5.5 0 00-.7 0l-6.66 6.66a.55.55 0 01-.59.1 3.75 3.75 0 102.1 2.11.55.55 0 01.11-.59l6.66-6.65a.5.5 0 000-.71l-.92-.92zm-10.35 9.22a1.45 1.45 0 112.05 2.05 1.45 1.45 0 01-2.05-2.05z" fill="currentColor"/>
  </symbol>

  <symbol id="orders" viewBox="0 0 48 48" fill="currentColor">
    <mask id="path-1-outside-1" maskUnits="userSpaceOnUse" x="1.5" y="3.5" fill="currentColor">
      <rect fill="white" x="1.5" y="3.5"/>
      <path fill-rule="evenodd" clip-rule="evenodd" d="M2.5 5C2.5 4.72386 2.72386 4.5 3 4.5H7.66689C8.3762 4.5 8.98856 4.99685 9.13471 5.69094L10.0209 9.9H43.7147C44.6927 9.9 45.4091 10.8208 45.1687 11.7688L41.9967 24.2753C41.8476 24.8633 41.359 25.3036 40.7586 25.3909L14.1361 29.2628C14.5156 30.1677 15.6832 31.5 18.5217 31.5H18.5432H18.5649H18.5868H18.6088H18.631H18.6534H18.6759H18.6987H18.7216H18.7447H18.768H18.7914H18.815H18.8388H18.8628H18.8869H18.9112H18.9357H18.9603H18.9851H19.0101H19.0352H19.0605H19.086H19.1117H19.1375H19.1635H19.1896H19.2159H19.2424H19.269H19.2958H19.3228H19.3499H19.3771H19.4046H19.4322H19.4599H19.4878H19.5159H19.5441H19.5724H19.601H19.6297H19.6585H19.6875H19.7166H19.7459H19.7753H19.8049H19.8347H19.8646H19.8946H19.9248H19.9551H19.9856H20.0162H20.047H20.0779H20.1089H20.1401H20.1715H20.203H20.2346H20.2664H20.2983H20.3303H20.3625H20.3948H20.4273H20.4599H20.4926H20.5255H20.5585H20.5916H20.6249H20.6583H20.6918H20.7255H20.7593H20.7932H20.8273H20.8615H20.8958H20.9302H20.9648H20.9995H21.0343H21.0693H21.1043H21.1395H21.1749H21.2103H21.2459H21.2816H21.3174H21.3533H21.3894H21.4255H21.4618H21.4982H21.5347H21.5714H21.6081H21.645H21.682H21.7191H21.7563H21.7936H21.8311H21.8686H21.9063H21.9441H21.9819H22.0199H22.058H22.0962H22.1346H22.173H22.2115H22.2501H22.2889H22.3277H22.3666H22.4057H22.4448H22.4841H22.5234H22.5629H22.6024H22.6421H22.6818H22.7217H22.7616H22.8017H22.8418H22.882H22.9223H22.9628H23.0033H23.0439H23.0846H23.1253H23.1662H23.2072H23.2482H23.2894H23.3306H23.3719H23.4133H23.4548H23.4964H23.5381H23.5798H23.6216H23.6636H23.7056H23.7476H23.7898H23.832H23.8744H23.9168H23.9592H24.0018H24.0444H24.0871H24.1299H24.1728H24.2157H24.2587H24.3018H24.345H24.3882H24.4315H24.4749H24.5183H24.5618H24.6054H24.6491H24.6928H24.7366H24.7804H24.8243H24.8683H24.9124H24.9565H25.0006H25.0449H25.0892H25.1335H25.178H25.2224H25.267H25.3116H25.3562H25.401H25.4457H25.4906H25.5355H25.5804H25.6254H25.6704H25.7156H25.7607H25.8059H25.8512H25.8965H25.9418H25.9873H26.0327H26.0782H26.1238H26.1694H26.215H26.2607H26.3065H26.3522H26.3981H26.4439H26.4899H26.5358H26.5818H26.6279H26.6739H26.72H26.7662H26.8124H26.8586H26.9049H26.9512H26.9975H27.0439H27.0903H27.1368H27.1832H27.2298H27.2763H27.3229H27.3695H27.4161H27.4628H27.5094H27.5562H27.6029H27.6497H27.6965H27.7433H27.7902H27.837H27.8839H27.9308H27.9778H28.0247H28.0717H28.1187H28.1658H28.2128H28.2599H28.3069H28.354H28.4012H28.4483H28.4954H28.5426H28.5898H28.637H28.6842H28.7314H28.7786H28.8258H28.8731H28.9203H28.9676H29.0149H29.0621H29.1094H29.1567H29.204H29.2513H29.2986H29.346H29.3933H29.4406H29.4879H29.5352H29.5826H29.6299H29.6772H29.7245H29.7719H29.8192H29.8665H29.9138H29.9611H30.0084H30.0557H30.103H30.1503H30.1976H30.2448H30.2921H30.3393H30.3866H30.4338H30.481H30.5282H30.5754H30.6226H30.6698H30.7169H30.7641H30.8112H30.8583H30.9054H30.9525H30.9995H31.0466H31.0936H31.1406H31.1875H31.2345H31.2814H31.3283H31.3752H31.4221H31.4689H31.5157H31.5625H31.6093H31.656H31.7027H31.7494H31.796H31.8427H31.8893H31.9358H31.9823H32.0288H32.0753H32.1217H32.1681H32.2145H32.2608H32.3071H32.3533H32.3996H32.4457H32.4919H32.538H32.584H32.6301H32.676H32.722H32.7679H32.8137H32.8595H32.9053H32.951H32.9967H33.0423H33.0879H33.1334H33.1789H33.2244H33.2697H33.3151H33.3604H33.4056H33.4508H33.4959H33.541H33.586H33.631H33.6759H33.7208H33.7656H33.8103H33.855H33.8997H33.9442H33.9888H34.0332H34.0776H34.1219H34.1662H34.2104H34.2546H34.2987H34.3427H34.3866H34.4305H34.4743H34.5181H34.5618H34.6054H34.649H34.6924H34.7358H34.7792H34.8225H34.8657H34.9088H34.9518H34.9948H35.0377H35.0805H35.1233H35.166H35.2086H35.2511H35.2935H35.3359H35.3782H35.4204H35.4625H35.5046H35.5465H35.5884H35.6302H35.6719H35.7135H35.7551H35.7965H35.8379H35.8792H35.9204H35.9615H36.0025H36.0434H36.0842H36.125H36.1656H36.2062H36.2467H36.287H36.3273H36.3675H36.4076H36.4476H36.4875H36.5273H36.567H36.6066H36.6461H36.6855H36.7248H36.764H36.8031H36.8421H36.881H36.9198H36.9585H36.9971H37.0356H37.0739H37.1122H37.1504H37.1884H37.2263H37.2642H37.3019H37.3395H37.377H37.4144H37.4517H37.4888H37.5259H37.5628H37.5997H37.6364H37.673H37.7094H37.7458H37.782H37.8181H37.8541H37.89H37.9258H37.9614H37.9969H38.0323H38.0676H38.1027H38.1377H38.1726H38.2074H38.2421H38.2766H38.311H38.3452H38.3793H38.4133H38.4472H38.481H38.5146H38.548H38.5814H38.6146H38.6477H38.6806H38.7134H38.7461H38.7786H38.811H38.8433H38.8754H38.9074H38.9393H38.971H39.0025H39.0339H39.0652C39.3414 31.5 39.5652 31.7239 39.5652 32C39.5652 32.2761 39.3414 32.5 39.0652 32.5H39.0339H39.0025H38.971H38.9393H38.9074H38.8754H38.8433H38.811H38.7786H38.7461H38.7134H38.6806H38.6477H38.6146H38.5814H38.548H38.5146H38.481H38.4472H38.4133H38.3793H38.3452H38.311H38.2766H38.2421H38.2074H38.1726H38.1377H38.1027H38.0676H38.0323H37.9969H37.9614H37.9258H37.89H37.8541H37.8181H37.782H37.7458H37.7094H37.673H37.6364H37.5997H37.5628H37.5259H37.4888H37.4517H37.4144H37.377H37.3395H37.3019H37.2642H37.2263H37.1884H37.1504H37.1122H37.0739H37.0356H36.9971H36.9585H36.9198H36.881H36.8421H36.8031H36.764H36.7248H36.6855H36.6461H36.6066H36.567H36.5273H36.4875H36.4476H36.4076H36.3675H36.3273H36.287H36.2467H36.2062H36.1656H36.125H36.0842H36.0434H36.0025H35.9615H35.9204H35.8792H35.8379H35.7965H35.7551H35.7135H35.6719H35.6302H35.5884H35.5465H35.5046H35.4625H35.4204H35.3782H35.3359H35.2935H35.2511H35.2086H35.166H35.1233H35.0805H35.0377H34.9948H34.9518H34.9088H34.8657H34.8225H34.7792H34.7358H34.6924H34.649H34.6054H34.5618H34.5181H34.4743H34.4305H34.3866H34.3427H34.2987H34.2546H34.2104H34.1662H34.1219H34.0776H34.0332H33.9888H33.9442H33.8997H33.855H33.8103H33.7656H33.7208H33.6759H33.631H33.586H33.541H33.4959H33.4508H33.4056H33.3604H33.3151H33.2697H33.2244H33.1789H33.1334H33.0879H33.0423H32.9967H32.951H32.9053H32.8595H32.8137H32.7679H32.722H32.676H32.6301H32.584H32.538H32.4919H32.4457H32.3996H32.3533H32.3071H32.2608H32.2145H32.1681H32.1217H32.0753H32.0288H31.9823H31.9358H31.8893H31.8427H31.796H31.7494H31.7027H31.656H31.6093H31.5625H31.5157H31.4689H31.4221H31.3752H31.3283H31.2814H31.2345H31.1875H31.1406H31.0936H31.0466H30.9995H30.9525H30.9054H30.8583H30.8112H30.7641H30.7169H30.6698H30.6226H30.5754H30.5282H30.481H30.4338H30.3866H30.3393H30.2921H30.2448H30.1976H30.1503H30.103H30.0557H30.0084H29.9611H29.9138H29.8665H29.8192H29.7719H29.7245H29.6772H29.6299H29.5826H29.5352H29.4879H29.4406H29.3933H29.346H29.2986H29.2513H29.204H29.1567H29.1094H29.0621H29.0149H28.9676H28.9203H28.8731H28.8258H28.7786H28.7314H28.6842H28.637H28.5898H28.5426H28.4954H28.4483H28.4012H28.354H28.3069H28.2599H28.2128H28.1658H28.1187H28.0717H28.0247H27.9778H27.9308H27.8839H27.837H27.7902H27.7433H27.6965H27.6497H27.6029H27.5562H27.5094H27.4628H27.4161H27.3695H27.3229H27.2763H27.2298H27.1832H27.1368H27.0903H27.0439H26.9975H26.9512H26.9049H26.8586H26.8124H26.7662H26.72H26.6739H26.6279H26.5818H26.5358H26.4899H26.4439H26.3981H26.3522H26.3065H26.2607H26.215H26.1694H26.1238H26.0782H26.0327H25.9873H25.9418H25.8965H25.8512H25.8059H25.7607H25.7156H25.6704H25.6254H25.5804H25.5355H25.4906H25.4457H25.401H25.3562H25.3116H25.267H25.2224H25.178H25.1335H25.0892H25.0449H25.0006H24.9565H24.9124H24.8683H24.8243H24.7804H24.7366H24.6928H24.6491H24.6054H24.5618H24.5183H24.4749H24.4315H24.3882H24.345H24.3018H24.2587H24.2157H24.1728H24.1299H24.0871H24.0444H24.0018H23.9592H23.9168H23.8744H23.832H23.7898H23.7476H23.7056H23.6636H23.6216H23.5798H23.5381H23.4964H23.4548H23.4133H23.3719H23.3306H23.2894H23.2482H23.2072H23.1662H23.1253H23.0846H23.0439H23.0033H22.9628H22.9223H22.882H22.8418H22.8017H22.7616H22.7217H22.6818H22.6421H22.6024H22.5629H22.5234H22.4841H22.4448H22.4057H22.3666H22.3277H22.2889H22.2501H22.2115H22.173H22.1346H22.0962H22.058H22.0199H21.9819H21.9441H21.9063H21.8686H21.8311H21.7936H21.7563H21.7191H21.682H21.645H21.6081H21.5714H21.5347H21.4982H21.4618H21.4255H21.3894H21.3533H21.3174H21.2816H21.2459H21.2103H21.1749H21.1395H21.1043H21.0693H21.0343H20.9995H20.9648H20.9302H20.8958H20.8615H20.8273H20.7932H20.7593H20.7255H20.6918H20.6583H20.6249H20.5916H20.5585H20.5255H20.4926H20.4599H20.4273H20.3948H20.3625H20.3303H20.2983H20.2664H20.2346H20.203H20.1715H20.1401H20.1089H20.0779H20.047H20.0162H19.9856H19.9551H19.9248H19.8946H19.8646H19.8347H19.8049H19.7753H19.7459H19.7166H19.6875H19.6585H19.6297H19.601H19.5724H19.5441H19.5159H19.4878H19.4599H19.4322H19.4046H19.3771H19.3499H19.3228H19.2958H19.269H19.2424H19.2159H19.1896H19.1635H19.1375H19.1117H19.086H19.0605H19.0352H19.0101H18.9851H18.9603H18.9357H18.9112H18.8869H18.8628H18.8388H18.815H18.7914H18.768H18.7447H18.7216H18.6987H18.6759H18.6534H18.631H18.6088H18.5868H18.5649H18.5432H18.5217C14.6499 32.5 13.2069 30.2488 13.0076 28.9384L9.12599 10.503L8.15616 5.89698C8.10745 5.66562 7.90333 5.5 7.66689 5.5H3C2.72386 5.5 2.5 5.27614 2.5 5ZM13.8926 28.2876L40.6147 24.4014C40.8148 24.3723 40.9777 24.2255 41.0274 24.0295L44.1994 11.5229C44.2795 11.2069 44.0407 10.9 43.7147 10.9H10.2315L13.8926 28.2876ZM21 39.5C21 41.433 19.433 43 17.5 43C15.567 43 14 41.433 14 39.5C14 37.567 15.567 36 17.5 36C19.433 36 21 37.567 21 39.5ZM22 39.5C22 41.9853 19.9853 44 17.5 44C15.0147 44 13 41.9853 13 39.5C13 37.0147 15.0147 35 17.5 35C19.9853 35 22 37.0147 22 39.5ZM39 39.5C39 41.433 37.433 43 35.5 43C33.567 43 32 41.433 32 39.5C32 37.567 33.567 36 35.5 36C37.433 36 39 37.567 39 39.5ZM40 39.5C40 41.9853 37.9853 44 35.5 44C33.0147 44 31 41.9853 31 39.5C31 37.0147 33.0147 35 35.5 35C37.9853 35 40 37.0147 40 39.5ZM27.6348 19.8945C27.8887 20.1406 28.0156 20.4434 28.0156 20.8027C28.0156 21.2285 27.8691 21.5645 27.5762 21.8105C27.2832 22.0566 26.8809 22.1797 26.3691 22.1797C25.8457 22.1797 25.4414 22.0332 25.1562 21.7402C24.8711 21.4473 24.7285 21.0293 24.7285 20.4863H23.6445C23.6445 21.2598 23.8496 21.873 24.2598 22.3262C24.6738 22.7754 25.2441 23.0332 25.9707 23.0996V24.2188H26.8379V23.0996C27.5527 23.0254 28.1074 22.7871 28.502 22.3848C28.9004 21.9824 29.0996 21.4512 29.0996 20.791C29.0996 20.377 29.0195 20.0156 28.8594 19.707C28.7031 19.3984 28.457 19.1289 28.1211 18.8984C27.7891 18.6641 27.3242 18.4512 26.7266 18.2598C26.1328 18.0645 25.7051 17.8496 25.4434 17.6152C25.1855 17.377 25.0566 17.0586 25.0566 16.6602C25.0566 16.2305 25.1797 15.8965 25.4258 15.6582C25.6719 15.416 26.0273 15.2949 26.4922 15.2949C26.9375 15.2949 27.291 15.457 27.5527 15.7813C27.8145 16.1055 27.9453 16.543 27.9453 17.0938H29.0234C29.0234 16.293 28.8398 15.6621 28.4727 15.2012C28.1094 14.7402 27.5996 14.4648 26.9434 14.375V13.0859L26.0703 13.0859V14.3691C25.418 14.4473 24.9043 14.6914 24.5293 15.1016C24.1582 15.5117 23.9727 16.0371 23.9727 16.6777C23.9727 17.3066 24.1621 17.8262 24.541 18.2363C24.9238 18.6426 25.5312 18.9727 26.3633 19.2266C26.9609 19.4258 27.3848 19.6484 27.6348 19.8945Z"/>
    </mask>
    <path fill-rule="evenodd" clip-rule="evenodd" d="M2.5 5C2.5 4.72386 2.72386 4.5 3 4.5H7.66689C8.3762 4.5 8.98856 4.99685 9.13471 5.69094L10.0209 9.9H43.7147C44.6927 9.9 45.4091 10.8208 45.1687 11.7688L41.9967 24.2753C41.8476 24.8633 41.359 25.3036 40.7586 25.3909L14.1361 29.2628C14.5156 30.1677 15.6832 31.5 18.5217 31.5H18.5432H18.5649H18.5868H18.6088H18.631H18.6534H18.6759H18.6987H18.7216H18.7447H18.768H18.7914H18.815H18.8388H18.8628H18.8869H18.9112H18.9357H18.9603H18.9851H19.0101H19.0352H19.0605H19.086H19.1117H19.1375H19.1635H19.1896H19.2159H19.2424H19.269H19.2958H19.3228H19.3499H19.3771H19.4046H19.4322H19.4599H19.4878H19.5159H19.5441H19.5724H19.601H19.6297H19.6585H19.6875H19.7166H19.7459H19.7753H19.8049H19.8347H19.8646H19.8946H19.9248H19.9551H19.9856H20.0162H20.047H20.0779H20.1089H20.1401H20.1715H20.203H20.2346H20.2664H20.2983H20.3303H20.3625H20.3948H20.4273H20.4599H20.4926H20.5255H20.5585H20.5916H20.6249H20.6583H20.6918H20.7255H20.7593H20.7932H20.8273H20.8615H20.8958H20.9302H20.9648H20.9995H21.0343H21.0693H21.1043H21.1395H21.1749H21.2103H21.2459H21.2816H21.3174H21.3533H21.3894H21.4255H21.4618H21.4982H21.5347H21.5714H21.6081H21.645H21.682H21.7191H21.7563H21.7936H21.8311H21.8686H21.9063H21.9441H21.9819H22.0199H22.058H22.0962H22.1346H22.173H22.2115H22.2501H22.2889H22.3277H22.3666H22.4057H22.4448H22.4841H22.5234H22.5629H22.6024H22.6421H22.6818H22.7217H22.7616H22.8017H22.8418H22.882H22.9223H22.9628H23.0033H23.0439H23.0846H23.1253H23.1662H23.2072H23.2482H23.2894H23.3306H23.3719H23.4133H23.4548H23.4964H23.5381H23.5798H23.6216H23.6636H23.7056H23.7476H23.7898H23.832H23.8744H23.9168H23.9592H24.0018H24.0444H24.0871H24.1299H24.1728H24.2157H24.2587H24.3018H24.345H24.3882H24.4315H24.4749H24.5183H24.5618H24.6054H24.6491H24.6928H24.7366H24.7804H24.8243H24.8683H24.9124H24.9565H25.0006H25.0449H25.0892H25.1335H25.178H25.2224H25.267H25.3116H25.3562H25.401H25.4457H25.4906H25.5355H25.5804H25.6254H25.6704H25.7156H25.7607H25.8059H25.8512H25.8965H25.9418H25.9873H26.0327H26.0782H26.1238H26.1694H26.215H26.2607H26.3065H26.3522H26.3981H26.4439H26.4899H26.5358H26.5818H26.6279H26.6739H26.72H26.7662H26.8124H26.8586H26.9049H26.9512H26.9975H27.0439H27.0903H27.1368H27.1832H27.2298H27.2763H27.3229H27.3695H27.4161H27.4628H27.5094H27.5562H27.6029H27.6497H27.6965H27.7433H27.7902H27.837H27.8839H27.9308H27.9778H28.0247H28.0717H28.1187H28.1658H28.2128H28.2599H28.3069H28.354H28.4012H28.4483H28.4954H28.5426H28.5898H28.637H28.6842H28.7314H28.7786H28.8258H28.8731H28.9203H28.9676H29.0149H29.0621H29.1094H29.1567H29.204H29.2513H29.2986H29.346H29.3933H29.4406H29.4879H29.5352H29.5826H29.6299H29.6772H29.7245H29.7719H29.8192H29.8665H29.9138H29.9611H30.0084H30.0557H30.103H30.1503H30.1976H30.2448H30.2921H30.3393H30.3866H30.4338H30.481H30.5282H30.5754H30.6226H30.6698H30.7169H30.7641H30.8112H30.8583H30.9054H30.9525H30.9995H31.0466H31.0936H31.1406H31.1875H31.2345H31.2814H31.3283H31.3752H31.4221H31.4689H31.5157H31.5625H31.6093H31.656H31.7027H31.7494H31.796H31.8427H31.8893H31.9358H31.9823H32.0288H32.0753H32.1217H32.1681H32.2145H32.2608H32.3071H32.3533H32.3996H32.4457H32.4919H32.538H32.584H32.6301H32.676H32.722H32.7679H32.8137H32.8595H32.9053H32.951H32.9967H33.0423H33.0879H33.1334H33.1789H33.2244H33.2697H33.3151H33.3604H33.4056H33.4508H33.4959H33.541H33.586H33.631H33.6759H33.7208H33.7656H33.8103H33.855H33.8997H33.9442H33.9888H34.0332H34.0776H34.1219H34.1662H34.2104H34.2546H34.2987H34.3427H34.3866H34.4305H34.4743H34.5181H34.5618H34.6054H34.649H34.6924H34.7358H34.7792H34.8225H34.8657H34.9088H34.9518H34.9948H35.0377H35.0805H35.1233H35.166H35.2086H35.2511H35.2935H35.3359H35.3782H35.4204H35.4625H35.5046H35.5465H35.5884H35.6302H35.6719H35.7135H35.7551H35.7965H35.8379H35.8792H35.9204H35.9615H36.0025H36.0434H36.0842H36.125H36.1656H36.2062H36.2467H36.287H36.3273H36.3675H36.4076H36.4476H36.4875H36.5273H36.567H36.6066H36.6461H36.6855H36.7248H36.764H36.8031H36.8421H36.881H36.9198H36.9585H36.9971H37.0356H37.0739H37.1122H37.1504H37.1884H37.2263H37.2642H37.3019H37.3395H37.377H37.4144H37.4517H37.4888H37.5259H37.5628H37.5997H37.6364H37.673H37.7094H37.7458H37.782H37.8181H37.8541H37.89H37.9258H37.9614H37.9969H38.0323H38.0676H38.1027H38.1377H38.1726H38.2074H38.2421H38.2766H38.311H38.3452H38.3793H38.4133H38.4472H38.481H38.5146H38.548H38.5814H38.6146H38.6477H38.6806H38.7134H38.7461H38.7786H38.811H38.8433H38.8754H38.9074H38.9393H38.971H39.0025H39.0339H39.0652C39.3414 31.5 39.5652 31.7239 39.5652 32C39.5652 32.2761 39.3414 32.5 39.0652 32.5H39.0339H39.0025H38.971H38.9393H38.9074H38.8754H38.8433H38.811H38.7786H38.7461H38.7134H38.6806H38.6477H38.6146H38.5814H38.548H38.5146H38.481H38.4472H38.4133H38.3793H38.3452H38.311H38.2766H38.2421H38.2074H38.1726H38.1377H38.1027H38.0676H38.0323H37.9969H37.9614H37.9258H37.89H37.8541H37.8181H37.782H37.7458H37.7094H37.673H37.6364H37.5997H37.5628H37.5259H37.4888H37.4517H37.4144H37.377H37.3395H37.3019H37.2642H37.2263H37.1884H37.1504H37.1122H37.0739H37.0356H36.9971H36.9585H36.9198H36.881H36.8421H36.8031H36.764H36.7248H36.6855H36.6461H36.6066H36.567H36.5273H36.4875H36.4476H36.4076H36.3675H36.3273H36.287H36.2467H36.2062H36.1656H36.125H36.0842H36.0434H36.0025H35.9615H35.9204H35.8792H35.8379H35.7965H35.7551H35.7135H35.6719H35.6302H35.5884H35.5465H35.5046H35.4625H35.4204H35.3782H35.3359H35.2935H35.2511H35.2086H35.166H35.1233H35.0805H35.0377H34.9948H34.9518H34.9088H34.8657H34.8225H34.7792H34.7358H34.6924H34.649H34.6054H34.5618H34.5181H34.4743H34.4305H34.3866H34.3427H34.2987H34.2546H34.2104H34.1662H34.1219H34.0776H34.0332H33.9888H33.9442H33.8997H33.855H33.8103H33.7656H33.7208H33.6759H33.631H33.586H33.541H33.4959H33.4508H33.4056H33.3604H33.3151H33.2697H33.2244H33.1789H33.1334H33.0879H33.0423H32.9967H32.951H32.9053H32.8595H32.8137H32.7679H32.722H32.676H32.6301H32.584H32.538H32.4919H32.4457H32.3996H32.3533H32.3071H32.2608H32.2145H32.1681H32.1217H32.0753H32.0288H31.9823H31.9358H31.8893H31.8427H31.796H31.7494H31.7027H31.656H31.6093H31.5625H31.5157H31.4689H31.4221H31.3752H31.3283H31.2814H31.2345H31.1875H31.1406H31.0936H31.0466H30.9995H30.9525H30.9054H30.8583H30.8112H30.7641H30.7169H30.6698H30.6226H30.5754H30.5282H30.481H30.4338H30.3866H30.3393H30.2921H30.2448H30.1976H30.1503H30.103H30.0557H30.0084H29.9611H29.9138H29.8665H29.8192H29.7719H29.7245H29.6772H29.6299H29.5826H29.5352H29.4879H29.4406H29.3933H29.346H29.2986H29.2513H29.204H29.1567H29.1094H29.0621H29.0149H28.9676H28.9203H28.8731H28.8258H28.7786H28.7314H28.6842H28.637H28.5898H28.5426H28.4954H28.4483H28.4012H28.354H28.3069H28.2599H28.2128H28.1658H28.1187H28.0717H28.0247H27.9778H27.9308H27.8839H27.837H27.7902H27.7433H27.6965H27.6497H27.6029H27.5562H27.5094H27.4628H27.4161H27.3695H27.3229H27.2763H27.2298H27.1832H27.1368H27.0903H27.0439H26.9975H26.9512H26.9049H26.8586H26.8124H26.7662H26.72H26.6739H26.6279H26.5818H26.5358H26.4899H26.4439H26.3981H26.3522H26.3065H26.2607H26.215H26.1694H26.1238H26.0782H26.0327H25.9873H25.9418H25.8965H25.8512H25.8059H25.7607H25.7156H25.6704H25.6254H25.5804H25.5355H25.4906H25.4457H25.401H25.3562H25.3116H25.267H25.2224H25.178H25.1335H25.0892H25.0449H25.0006H24.9565H24.9124H24.8683H24.8243H24.7804H24.7366H24.6928H24.6491H24.6054H24.5618H24.5183H24.4749H24.4315H24.3882H24.345H24.3018H24.2587H24.2157H24.1728H24.1299H24.0871H24.0444H24.0018H23.9592H23.9168H23.8744H23.832H23.7898H23.7476H23.7056H23.6636H23.6216H23.5798H23.5381H23.4964H23.4548H23.4133H23.3719H23.3306H23.2894H23.2482H23.2072H23.1662H23.1253H23.0846H23.0439H23.0033H22.9628H22.9223H22.882H22.8418H22.8017H22.7616H22.7217H22.6818H22.6421H22.6024H22.5629H22.5234H22.4841H22.4448H22.4057H22.3666H22.3277H22.2889H22.2501H22.2115H22.173H22.1346H22.0962H22.058H22.0199H21.9819H21.9441H21.9063H21.8686H21.8311H21.7936H21.7563H21.7191H21.682H21.645H21.6081H21.5714H21.5347H21.4982H21.4618H21.4255H21.3894H21.3533H21.3174H21.2816H21.2459H21.2103H21.1749H21.1395H21.1043H21.0693H21.0343H20.9995H20.9648H20.9302H20.8958H20.8615H20.8273H20.7932H20.7593H20.7255H20.6918H20.6583H20.6249H20.5916H20.5585H20.5255H20.4926H20.4599H20.4273H20.3948H20.3625H20.3303H20.2983H20.2664H20.2346H20.203H20.1715H20.1401H20.1089H20.0779H20.047H20.0162H19.9856H19.9551H19.9248H19.8946H19.8646H19.8347H19.8049H19.7753H19.7459H19.7166H19.6875H19.6585H19.6297H19.601H19.5724H19.5441H19.5159H19.4878H19.4599H19.4322H19.4046H19.3771H19.3499H19.3228H19.2958H19.269H19.2424H19.2159H19.1896H19.1635H19.1375H19.1117H19.086H19.0605H19.0352H19.0101H18.9851H18.9603H18.9357H18.9112H18.8869H18.8628H18.8388H18.815H18.7914H18.768H18.7447H18.7216H18.6987H18.6759H18.6534H18.631H18.6088H18.5868H18.5649H18.5432H18.5217C14.6499 32.5 13.2069 30.2488 13.0076 28.9384L9.12599 10.503L8.15616 5.89698C8.10745 5.66562 7.90333 5.5 7.66689 5.5H3C2.72386 5.5 2.5 5.27614 2.5 5ZM13.8926 28.2876L40.6147 24.4014C40.8148 24.3723 40.9777 24.2255 41.0274 24.0295L44.1994 11.5229C44.2795 11.2069 44.0407 10.9 43.7147 10.9H10.2315L13.8926 28.2876ZM21 39.5C21 41.433 19.433 43 17.5 43C15.567 43 14 41.433 14 39.5C14 37.567 15.567 36 17.5 36C19.433 36 21 37.567 21 39.5ZM22 39.5C22 41.9853 19.9853 44 17.5 44C15.0147 44 13 41.9853 13 39.5C13 37.0147 15.0147 35 17.5 35C19.9853 35 22 37.0147 22 39.5ZM39 39.5C39 41.433 37.433 43 35.5 43C33.567 43 32 41.433 32 39.5C32 37.567 33.567 36 35.5 36C37.433 36 39 37.567 39 39.5ZM40 39.5C40 41.9853 37.9853 44 35.5 44C33.0147 44 31 41.9853 31 39.5C31 37.0147 33.0147 35 35.5 35C37.9853 35 40 37.0147 40 39.5ZM27.6348 19.8945C27.8887 20.1406 28.0156 20.4434 28.0156 20.8027C28.0156 21.2285 27.8691 21.5645 27.5762 21.8105C27.2832 22.0566 26.8809 22.1797 26.3691 22.1797C25.8457 22.1797 25.4414 22.0332 25.1562 21.7402C24.8711 21.4473 24.7285 21.0293 24.7285 20.4863H23.6445C23.6445 21.2598 23.8496 21.873 24.2598 22.3262C24.6738 22.7754 25.2441 23.0332 25.9707 23.0996V24.2188H26.8379V23.0996C27.5527 23.0254 28.1074 22.7871 28.502 22.3848C28.9004 21.9824 29.0996 21.4512 29.0996 20.791C29.0996 20.377 29.0195 20.0156 28.8594 19.707C28.7031 19.3984 28.457 19.1289 28.1211 18.8984C27.7891 18.6641 27.3242 18.4512 26.7266 18.2598C26.1328 18.0645 25.7051 17.8496 25.4434 17.6152C25.1855 17.377 25.0566 17.0586 25.0566 16.6602C25.0566 16.2305 25.1797 15.8965 25.4258 15.6582C25.6719 15.416 26.0273 15.2949 26.4922 15.2949C26.9375 15.2949 27.291 15.457 27.5527 15.7813C27.8145 16.1055 27.9453 16.543 27.9453 17.0938H29.0234C29.0234 16.293 28.8398 15.6621 28.4727 15.2012C28.1094 14.7402 27.5996 14.4648 26.9434 14.375V13.0859L26.0703 13.0859V14.3691C25.418 14.4473 24.9043 14.6914 24.5293 15.1016C24.1582 15.5117 23.9727 16.0371 23.9727 16.6777C23.9727 17.3066 24.1621 17.8262 24.541 18.2363C24.9238 18.6426 25.5312 18.9727 26.3633 19.2266C26.9609 19.4258 27.3848 19.6484 27.6348 19.8945Z" fill="currentColor"/>
    <path fill-rule="evenodd" clip-rule="evenodd" d="M2.5 5C2.5 4.72386 2.72386 4.5 3 4.5H7.66689C8.3762 4.5 8.98856 4.99685 9.13471 5.69094L10.0209 9.9H43.7147C44.6927 9.9 45.4091 10.8208 45.1687 11.7688L41.9967 24.2753C41.8476 24.8633 41.359 25.3036 40.7586 25.3909L14.1361 29.2628C14.5156 30.1677 15.6832 31.5 18.5217 31.5H18.5432H18.5649H18.5868H18.6088H18.631H18.6534H18.6759H18.6987H18.7216H18.7447H18.768H18.7914H18.815H18.8388H18.8628H18.8869H18.9112H18.9357H18.9603H18.9851H19.0101H19.0352H19.0605H19.086H19.1117H19.1375H19.1635H19.1896H19.2159H19.2424H19.269H19.2958H19.3228H19.3499H19.3771H19.4046H19.4322H19.4599H19.4878H19.5159H19.5441H19.5724H19.601H19.6297H19.6585H19.6875H19.7166H19.7459H19.7753H19.8049H19.8347H19.8646H19.8946H19.9248H19.9551H19.9856H20.0162H20.047H20.0779H20.1089H20.1401H20.1715H20.203H20.2346H20.2664H20.2983H20.3303H20.3625H20.3948H20.4273H20.4599H20.4926H20.5255H20.5585H20.5916H20.6249H20.6583H20.6918H20.7255H20.7593H20.7932H20.8273H20.8615H20.8958H20.9302H20.9648H20.9995H21.0343H21.0693H21.1043H21.1395H21.1749H21.2103H21.2459H21.2816H21.3174H21.3533H21.3894H21.4255H21.4618H21.4982H21.5347H21.5714H21.6081H21.645H21.682H21.7191H21.7563H21.7936H21.8311H21.8686H21.9063H21.9441H21.9819H22.0199H22.058H22.0962H22.1346H22.173H22.2115H22.2501H22.2889H22.3277H22.3666H22.4057H22.4448H22.4841H22.5234H22.5629H22.6024H22.6421H22.6818H22.7217H22.7616H22.8017H22.8418H22.882H22.9223H22.9628H23.0033H23.0439H23.0846H23.1253H23.1662H23.2072H23.2482H23.2894H23.3306H23.3719H23.4133H23.4548H23.4964H23.5381H23.5798H23.6216H23.6636H23.7056H23.7476H23.7898H23.832H23.8744H23.9168H23.9592H24.0018H24.0444H24.0871H24.1299H24.1728H24.2157H24.2587H24.3018H24.345H24.3882H24.4315H24.4749H24.5183H24.5618H24.6054H24.6491H24.6928H24.7366H24.7804H24.8243H24.8683H24.9124H24.9565H25.0006H25.0449H25.0892H25.1335H25.178H25.2224H25.267H25.3116H25.3562H25.401H25.4457H25.4906H25.5355H25.5804H25.6254H25.6704H25.7156H25.7607H25.8059H25.8512H25.8965H25.9418H25.9873H26.0327H26.0782H26.1238H26.1694H26.215H26.2607H26.3065H26.3522H26.3981H26.4439H26.4899H26.5358H26.5818H26.6279H26.6739H26.72H26.7662H26.8124H26.8586H26.9049H26.9512H26.9975H27.0439H27.0903H27.1368H27.1832H27.2298H27.2763H27.3229H27.3695H27.4161H27.4628H27.5094H27.5562H27.6029H27.6497H27.6965H27.7433H27.7902H27.837H27.8839H27.9308H27.9778H28.0247H28.0717H28.1187H28.1658H28.2128H28.2599H28.3069H28.354H28.4012H28.4483H28.4954H28.5426H28.5898H28.637H28.6842H28.7314H28.7786H28.8258H28.8731H28.9203H28.9676H29.0149H29.0621H29.1094H29.1567H29.204H29.2513H29.2986H29.346H29.3933H29.4406H29.4879H29.5352H29.5826H29.6299H29.6772H29.7245H29.7719H29.8192H29.8665H29.9138H29.9611H30.0084H30.0557H30.103H30.1503H30.1976H30.2448H30.2921H30.3393H30.3866H30.4338H30.481H30.5282H30.5754H30.6226H30.6698H30.7169H30.7641H30.8112H30.8583H30.9054H30.9525H30.9995H31.0466H31.0936H31.1406H31.1875H31.2345H31.2814H31.3283H31.3752H31.4221H31.4689H31.5157H31.5625H31.6093H31.656H31.7027H31.7494H31.796H31.8427H31.8893H31.9358H31.9823H32.0288H32.0753H32.1217H32.1681H32.2145H32.2608H32.3071H32.3533H32.3996H32.4457H32.4919H32.538H32.584H32.6301H32.676H32.722H32.7679H32.8137H32.8595H32.9053H32.951H32.9967H33.0423H33.0879H33.1334H33.1789H33.2244H33.2697H33.3151H33.3604H33.4056H33.4508H33.4959H33.541H33.586H33.631H33.6759H33.7208H33.7656H33.8103H33.855H33.8997H33.9442H33.9888H34.0332H34.0776H34.1219H34.1662H34.2104H34.2546H34.2987H34.3427H34.3866H34.4305H34.4743H34.5181H34.5618H34.6054H34.649H34.6924H34.7358H34.7792H34.8225H34.8657H34.9088H34.9518H34.9948H35.0377H35.0805H35.1233H35.166H35.2086H35.2511H35.2935H35.3359H35.3782H35.4204H35.4625H35.5046H35.5465H35.5884H35.6302H35.6719H35.7135H35.7551H35.7965H35.8379H35.8792H35.9204H35.9615H36.0025H36.0434H36.0842H36.125H36.1656H36.2062H36.2467H36.287H36.3273H36.3675H36.4076H36.4476H36.4875H36.5273H36.567H36.6066H36.6461H36.6855H36.7248H36.764H36.8031H36.8421H36.881H36.9198H36.9585H36.9971H37.0356H37.0739H37.1122H37.1504H37.1884H37.2263H37.2642H37.3019H37.3395H37.377H37.4144H37.4517H37.4888H37.5259H37.5628H37.5997H37.6364H37.673H37.7094H37.7458H37.782H37.8181H37.8541H37.89H37.9258H37.9614H37.9969H38.0323H38.0676H38.1027H38.1377H38.1726H38.2074H38.2421H38.2766H38.311H38.3452H38.3793H38.4133H38.4472H38.481H38.5146H38.548H38.5814H38.6146H38.6477H38.6806H38.7134H38.7461H38.7786H38.811H38.8433H38.8754H38.9074H38.9393H38.971H39.0025H39.0339H39.0652C39.3414 31.5 39.5652 31.7239 39.5652 32C39.5652 32.2761 39.3414 32.5 39.0652 32.5H39.0339H39.0025H38.971H38.9393H38.9074H38.8754H38.8433H38.811H38.7786H38.7461H38.7134H38.6806H38.6477H38.6146H38.5814H38.548H38.5146H38.481H38.4472H38.4133H38.3793H38.3452H38.311H38.2766H38.2421H38.2074H38.1726H38.1377H38.1027H38.0676H38.0323H37.9969H37.9614H37.9258H37.89H37.8541H37.8181H37.782H37.7458H37.7094H37.673H37.6364H37.5997H37.5628H37.5259H37.4888H37.4517H37.4144H37.377H37.3395H37.3019H37.2642H37.2263H37.1884H37.1504H37.1122H37.0739H37.0356H36.9971H36.9585H36.9198H36.881H36.8421H36.8031H36.764H36.7248H36.6855H36.6461H36.6066H36.567H36.5273H36.4875H36.4476H36.4076H36.3675H36.3273H36.287H36.2467H36.2062H36.1656H36.125H36.0842H36.0434H36.0025H35.9615H35.9204H35.8792H35.8379H35.7965H35.7551H35.7135H35.6719H35.6302H35.5884H35.5465H35.5046H35.4625H35.4204H35.3782H35.3359H35.2935H35.2511H35.2086H35.166H35.1233H35.0805H35.0377H34.9948H34.9518H34.9088H34.8657H34.8225H34.7792H34.7358H34.6924H34.649H34.6054H34.5618H34.5181H34.4743H34.4305H34.3866H34.3427H34.2987H34.2546H34.2104H34.1662H34.1219H34.0776H34.0332H33.9888H33.9442H33.8997H33.855H33.8103H33.7656H33.7208H33.6759H33.631H33.586H33.541H33.4959H33.4508H33.4056H33.3604H33.3151H33.2697H33.2244H33.1789H33.1334H33.0879H33.0423H32.9967H32.951H32.9053H32.8595H32.8137H32.7679H32.722H32.676H32.6301H32.584H32.538H32.4919H32.4457H32.3996H32.3533H32.3071H32.2608H32.2145H32.1681H32.1217H32.0753H32.0288H31.9823H31.9358H31.8893H31.8427H31.796H31.7494H31.7027H31.656H31.6093H31.5625H31.5157H31.4689H31.4221H31.3752H31.3283H31.2814H31.2345H31.1875H31.1406H31.0936H31.0466H30.9995H30.9525H30.9054H30.8583H30.8112H30.7641H30.7169H30.6698H30.6226H30.5754H30.5282H30.481H30.4338H30.3866H30.3393H30.2921H30.2448H30.1976H30.1503H30.103H30.0557H30.0084H29.9611H29.9138H29.8665H29.8192H29.7719H29.7245H29.6772H29.6299H29.5826H29.5352H29.4879H29.4406H29.3933H29.346H29.2986H29.2513H29.204H29.1567H29.1094H29.0621H29.0149H28.9676H28.9203H28.8731H28.8258H28.7786H28.7314H28.6842H28.637H28.5898H28.5426H28.4954H28.4483H28.4012H28.354H28.3069H28.2599H28.2128H28.1658H28.1187H28.0717H28.0247H27.9778H27.9308H27.8839H27.837H27.7902H27.7433H27.6965H27.6497H27.6029H27.5562H27.5094H27.4628H27.4161H27.3695H27.3229H27.2763H27.2298H27.1832H27.1368H27.0903H27.0439H26.9975H26.9512H26.9049H26.8586H26.8124H26.7662H26.72H26.6739H26.6279H26.5818H26.5358H26.4899H26.4439H26.3981H26.3522H26.3065H26.2607H26.215H26.1694H26.1238H26.0782H26.0327H25.9873H25.9418H25.8965H25.8512H25.8059H25.7607H25.7156H25.6704H25.6254H25.5804H25.5355H25.4906H25.4457H25.401H25.3562H25.3116H25.267H25.2224H25.178H25.1335H25.0892H25.0449H25.0006H24.9565H24.9124H24.8683H24.8243H24.7804H24.7366H24.6928H24.6491H24.6054H24.5618H24.5183H24.4749H24.4315H24.3882H24.345H24.3018H24.2587H24.2157H24.1728H24.1299H24.0871H24.0444H24.0018H23.9592H23.9168H23.8744H23.832H23.7898H23.7476H23.7056H23.6636H23.6216H23.5798H23.5381H23.4964H23.4548H23.4133H23.3719H23.3306H23.2894H23.2482H23.2072H23.1662H23.1253H23.0846H23.0439H23.0033H22.9628H22.9223H22.882H22.8418H22.8017H22.7616H22.7217H22.6818H22.6421H22.6024H22.5629H22.5234H22.4841H22.4448H22.4057H22.3666H22.3277H22.2889H22.2501H22.2115H22.173H22.1346H22.0962H22.058H22.0199H21.9819H21.9441H21.9063H21.8686H21.8311H21.7936H21.7563H21.7191H21.682H21.645H21.6081H21.5714H21.5347H21.4982H21.4618H21.4255H21.3894H21.3533H21.3174H21.2816H21.2459H21.2103H21.1749H21.1395H21.1043H21.0693H21.0343H20.9995H20.9648H20.9302H20.8958H20.8615H20.8273H20.7932H20.7593H20.7255H20.6918H20.6583H20.6249H20.5916H20.5585H20.5255H20.4926H20.4599H20.4273H20.3948H20.3625H20.3303H20.2983H20.2664H20.2346H20.203H20.1715H20.1401H20.1089H20.0779H20.047H20.0162H19.9856H19.9551H19.9248H19.8946H19.8646H19.8347H19.8049H19.7753H19.7459H19.7166H19.6875H19.6585H19.6297H19.601H19.5724H19.5441H19.5159H19.4878H19.4599H19.4322H19.4046H19.3771H19.3499H19.3228H19.2958H19.269H19.2424H19.2159H19.1896H19.1635H19.1375H19.1117H19.086H19.0605H19.0352H19.0101H18.9851H18.9603H18.9357H18.9112H18.8869H18.8628H18.8388H18.815H18.7914H18.768H18.7447H18.7216H18.6987H18.6759H18.6534H18.631H18.6088H18.5868H18.5649H18.5432H18.5217C14.6499 32.5 13.2069 30.2488 13.0076 28.9384L9.12599 10.503L8.15616 5.89698C8.10745 5.66562 7.90333 5.5 7.66689 5.5H3C2.72386 5.5 2.5 5.27614 2.5 5ZM13.8926 28.2876L40.6147 24.4014C40.8148 24.3723 40.9777 24.2255 41.0274 24.0295L44.1994 11.5229C44.2795 11.2069 44.0407 10.9 43.7147 10.9H10.2315L13.8926 28.2876ZM21 39.5C21 41.433 19.433 43 17.5 43C15.567 43 14 41.433 14 39.5C14 37.567 15.567 36 17.5 36C19.433 36 21 37.567 21 39.5ZM22 39.5C22 41.9853 19.9853 44 17.5 44C15.0147 44 13 41.9853 13 39.5C13 37.0147 15.0147 35 17.5 35C19.9853 35 22 37.0147 22 39.5ZM39 39.5C39 41.433 37.433 43 35.5 43C33.567 43 32 41.433 32 39.5C32 37.567 33.567 36 35.5 36C37.433 36 39 37.567 39 39.5ZM40 39.5C40 41.9853 37.9853 44 35.5 44C33.0147 44 31 41.9853 31 39.5C31 37.0147 33.0147 35 35.5 35C37.9853 35 40 37.0147 40 39.5ZM27.6348 19.8945C27.8887 20.1406 28.0156 20.4434 28.0156 20.8027C28.0156 21.2285 27.8691 21.5645 27.5762 21.8105C27.2832 22.0566 26.8809 22.1797 26.3691 22.1797C25.8457 22.1797 25.4414 22.0332 25.1562 21.7402C24.8711 21.4473 24.7285 21.0293 24.7285 20.4863H23.6445C23.6445 21.2598 23.8496 21.873 24.2598 22.3262C24.6738 22.7754 25.2441 23.0332 25.9707 23.0996V24.2188H26.8379V23.0996C27.5527 23.0254 28.1074 22.7871 28.502 22.3848C28.9004 21.9824 29.0996 21.4512 29.0996 20.791C29.0996 20.377 29.0195 20.0156 28.8594 19.707C28.7031 19.3984 28.457 19.1289 28.1211 18.8984C27.7891 18.6641 27.3242 18.4512 26.7266 18.2598C26.1328 18.0645 25.7051 17.8496 25.4434 17.6152C25.1855 17.377 25.0566 17.0586 25.0566 16.6602C25.0566 16.2305 25.1797 15.8965 25.4258 15.6582C25.6719 15.416 26.0273 15.2949 26.4922 15.2949C26.9375 15.2949 27.291 15.457 27.5527 15.7813C27.8145 16.1055 27.9453 16.543 27.9453 17.0938H29.0234C29.0234 16.293 28.8398 15.6621 28.4727 15.2012C28.1094 14.7402 27.5996 14.4648 26.9434 14.375V13.0859L26.0703 13.0859V14.3691C25.418 14.4473 24.9043 14.6914 24.5293 15.1016C24.1582 15.5117 23.9727 16.0371 23.9727 16.6777C23.9727 17.3066 24.1621 17.8262 24.541 18.2363C24.9238 18.6426 25.5312 18.9727 26.3633 19.2266C26.9609 19.4258 27.3848 19.6484 27.6348 19.8945Z" fill="currentColor" stroke="currentColor" stroke-width="1" mask="url(#path-1-outside-1)"/>
  </symbol>
  <symbol id="crm" viewBox="0 0 22 22" fill="currentColor">
    <path fill='currentColor' d='M5.3 0H1.4C.6 0 0 .6 0 1.4v19.2c0 .8.6 1.4 1.4 1.4h3.8c.8 0 1.4-.6 1.4-1.4V1.4C6.7.6 6 0 5.3 0zm.4 20.6c0 .2-.2.4-.4.4H1.4c-.2 0-.4-.2-.4-.4V1.4c0-.2.2-.4.4-.4h3.8c.2 0 .4.2.4.4v19.2zm0 0M12.9 0H9.1c-.8 0-1.4.6-1.4 1.4v8.2c0 .8.6 1.4 1.4 1.4h3.8c.8 0 1.4-.6 1.4-1.4V1.4c0-.8-.6-1.4-1.4-1.4zm.5 9.6c0 .2-.2.4-.4.4H9.1c-.2 0-.4-.2-.4-.4V1.4c-.1-.2.1-.4.4-.4h3.8c.2 0 .4.2.4.4v8.2zm0 0M20.6 0h-3.8c-.8 0-1.4.6-1.4 1.4v13.1c0 .8.6 1.4 1.4 1.4h3.8c.8 0 1.4-.6 1.4-1.4V1.4c0-.8-.6-1.4-1.4-1.4zm.4 14.5c0 .2-.2.4-.4.4h-3.8c-.2 0-.4-.2-.4-.4V1.4c0-.2.2-.4.4-.4h3.8c.2 0 .4.2.4.4v13.1zm0 0'/>
  </symbol>
  <symbol id="customers" fill="none" viewBox="0 0 24 24">
    <path d="M11.75 10.4c1.08 0 2-.38 2.76-1.14a3.75 3.75 0 001.14-2.76c0-1.08-.38-2-1.14-2.76a3.76 3.76 0 00-2.76-1.14c-1.08 0-2 .38-2.76 1.14A3.75 3.75 0 007.85 6.5c0 1.08.38 2 1.14 2.76a3.76 3.76 0 002.76 1.14zm7.47 6.31a11 11 0 00-.15-1.15 9.1 9.1 0 00-.28-1.16 5.5 5.5 0 00-.45-1.03 3.72 3.72 0 00-.65-.85 2.73 2.73 0 00-.89-.57 3.12 3.12 0 00-1.16-.2c-.05 0-.15.04-.42.22l-.79.5a5.03 5.03 0 01-2.57.75 4.59 4.59 0 01-1.43-.23 5.03 5.03 0 01-1.15-.51l-.79-.52c-.27-.18-.37-.22-.42-.22-.42 0-.81.07-1.16.21-.35.14-.65.33-.89.57a3.7 3.7 0 00-.65.85c-.19.34-.34.68-.45 1.03a9.17 9.17 0 00-.43 2.31c-.02.36-.03.73-.03 1.1 0 .86.25 1.52.76 2 .5.49 1.17.73 2.02.73h9.23a2.8 2.8 0 002.03-.73c.5-.48.76-1.14.76-2 0-.37-.02-.74-.04-1.1zm1.2-.08z" stroke="currentColor" stroke-width="1.2"/>
  </symbol>
  <symbol id="catalog" viewBox="0 0 48 48" fill="currentColor">
    <path d="M47.2 22.1l-5.1-8.7a.8.8 0 00-.4-.4L24.3 5H24l-.4.1-17.4 8-.4.4-5.1 8.7c-.1.2-.2.5-.1.7.1.2.2.4.5.5l4.6 2.1v8.7c0 .3.2.6.5.8l17.4 8h.4l.4-.1 17.4-8c.3-.1.5-.5.5-.8v-8.7l4.6-2.1.5-.5c.1-.2 0-.5-.2-.7zm-17.8 7.3l-4.2-7.2L41.1 15l4.2 7.2-15.9 7.2zM24 5.2h.2-.3.1zm-21.2 17L6.9 15l15.8 7.3-4.2 7.2-15.7-7.3zm20.3 18.6L7.5 33.6v-7.4l11.1 5.1.4.1c.3 0 .6-.2.8-.4l3.5-5.9v15.7zm.9-19.9l-15.3-7 15.3-7 15.3 7-15.3 7zm16.5 12.7l-15.7 7.2V25l3.5 5.9c.2.3.4.4.8.4l.4-.1 11.1-5.1v7.5z"/>
  </symbol>
  <symbol id="tasks" viewBox="0 0 22 22" fill="currentColor">
    <defs/>
    <clipPath id="a">
      <path fill="currentColor" d="M2.5 0h16.9v22H2.5z"/>
    </clipPath>
    <path fill="currentColor" d="M19.5 5.1c0-.9-.8-1.7-1.7-1.7h-2.3c-.3-.3-.7-.6-1.2-.7a1 1 0 01-.8-.8C13.1.8 12.2 0 11 0S8.9.8 8.6 1.8c-.2.4-.5.7-.8.8-.5.2-.9.4-1.2.8H4.2c-.9 0-1.7.8-1.7 1.7v15.2c0 .9.8 1.7 1.7 1.7h13.5c.9 0 1.7-.8 1.7-1.7l.1-15.2zm-12.7 0c0-.7.5-1.4 1.2-1.6a2 2 0 001.4-1.4c.2-.7.9-1.2 1.6-1.2s1.4.5 1.6 1.2A2 2 0 0014 3.5c.7.2 1.2.9 1.2 1.6v.8H6.8v-.8zm11 16.1H4.3a.8.8 0 01-.8-.8V5.1c0-.5.4-.8.8-.8h1.8l-.2.8v1.7h10.2V5.1l-.1-.8h1.8c.5 0 .8.4.8.8v15.2c0 .5-.4.9-.8.9zm0 0" clip-path="url(#a)"/>
    <path fill="currentColor" d="M14.5 10.3l-5.1 5.1-2.2-2.2-.6.6 2.8 2.8 5.7-5.7-.6-.6zm0 0"/>
  </symbol>
  <symbol id="booking" viewBox="0 0 48 48" fill="currentColor">
    <mask id="a" maskUnits="userSpaceOnUse" x="2" y="4" fill="currentColor">
      <rect fill="currentColor" x="2" y="4"/>
      <path fill-rule="evenodd" clip-rule="evenodd" d="M34.7 9.2h5.6a5 5 0 015 5V38a5 5 0 01-5 4.9H7.9A5 5 0 013 38V14.2a5 5 0 015-4.9h5.6V5.7a.7.7 0 011.4 0v3.5h18.3V5.7a.7.7 0 011.4 0v3.5zm5.6 32.4c2 0 3.5-1.6 3.5-3.5V20.5H4.4V38c0 2 1.6 3.5 3.5 3.5h32.4zM4.4 19h39.4v-5c0-1.9-1.6-3.5-3.5-3.5h-5.6v3.5a.7.7 0 01-1.4 0v-3.5H15v3.5a.7.7 0 11-1.4 0v-3.5H7.9c-2 0-3.5 1.6-3.5 3.5v5zm9.4 19a1.5 1.5 0 100-3 1.5 1.5 0 000 3zm20.7 0a1.5 1.5 0 100-3 1.5 1.5 0 000 3zM13.8 27.6a1.5 1.5 0 100-3 1.5 1.5 0 000 3zm22.1-1.5a1.5 1.5 0 11-3 0 1.5 1.5 0 013 0zm-11.8 1.5a1.5 1.5 0 100-3 1.5 1.5 0 000 3zm1.5 8.9a1.5 1.5 0 11-3 0 1.5 1.5 0 013 0z"/>
    </mask>
    <path fill-rule="evenodd" clip-rule="evenodd" d="M34.7 9.2h5.6a5 5 0 015 5V38a5 5 0 01-5 4.9H7.9A5 5 0 013 38V14.2a5 5 0 015-4.9h5.6V5.7a.7.7 0 011.4 0v3.5h18.3V5.7a.7.7 0 011.4 0v3.5zm5.6 32.4c2 0 3.5-1.6 3.5-3.5V20.5H4.4V38c0 2 1.6 3.5 3.5 3.5h32.4zM4.4 19h39.4v-5c0-1.9-1.6-3.5-3.5-3.5h-5.6v3.5a.7.7 0 01-1.4 0v-3.5H15v3.5a.7.7 0 11-1.4 0v-3.5H7.9c-2 0-3.5 1.6-3.5 3.5v5zm9.4 19a1.5 1.5 0 100-3 1.5 1.5 0 000 3zm20.7 0a1.5 1.5 0 100-3 1.5 1.5 0 000 3zM13.8 27.6a1.5 1.5 0 100-3 1.5 1.5 0 000 3zm22.1-1.5a1.5 1.5 0 11-3 0 1.5 1.5 0 013 0zm-11.8 1.5a1.5 1.5 0 100-3 1.5 1.5 0 000 3zm1.5 8.9a1.5 1.5 0 11-3 0 1.5 1.5 0 013 0z" fill="currentColor"/>
    <path d="M40.3 9.2V9v.2zm-5.6 0h-.3v.2h.3v-.2zm10.5 5h.2-.2zm0 23.9h.2-.2zM40.3 43v.2-.2zM7.9 43v.2-.2zM3 38h-.2.2zm0-23.9h-.2.2zm5-4.9V9v.2zm5.6 0v.2h.2v-.2h-.2zm1.4 0h-.3v.2h.3v-.2zm18.3 0v.2h.2v-.2h-.2zm10.5 28.9h.2-.2zm-3.5 3.5v.2-.2zm3.5-21.1h.2v-.2h-.2v.2zm-39.4 0v-.2h-.2v.2h.2zm0 17.6h-.2.2zM8 41.6v.2-.2zM44 19v.2h.1V19h-.2zM4.3 19h-.2v.2h.2V19zm39.4-5h.2-.2zm-3.5-3.5v-.2.2zm-5.6 0v-.2h-.3v.2h.3zm-1.4 0h.2v-.2h-.2v.2zm-18.3 0v-.2h-.3v.2h.3zm-1.4 0h.2v-.2h-.2v.2zm-5.7 0v-.2.2zm-3.5 3.5h-.2.2zM40.3 9h-5.6v.4h5.6V9zm5.1 5.1c0-2.8-2.3-5-5.1-5.1v.4c2.6 0 4.7 2.2 4.7 4.7h.4zm0 24V14H45v24h.4zm-5.1 5.1c2.8 0 5.1-2.3 5.1-5.1H45c0 2.6-2.1 4.7-4.7 4.7v.4zm-32.4 0h32.4v-.4H7.9v.4zm-5.1-5.1c0 2.8 2.3 5.1 5.1 5.1v-.4A4.7 4.7 0 013.2 38h-.4zm0-24v24h.4V14h-.4zM7.9 9a5.2 5.2 0 00-5.1 5.1h.4c0-2.5 2.1-4.7 4.7-4.7V9zm5.7 0H7.9v.4h5.7V9zm-.3-3.3v3.5h.5V5.7h-.5zm1-1a1 1 0 00-1 1h.5c0-.3.2-.5.5-.5v-.4zm.9 1c0-.5-.4-1-1-1v.5c.3 0 .5.2.5.5h.5zm0 3.5V5.7h-.5v3.5h.5zm18-.2H15v.4h18.3V9zM33 5.7v3.5h.5V5.7H33zm1-1a1 1 0 00-1 1h.5c0-.3.2-.5.5-.5v-.4zm.9 1c0-.5-.4-1-1-1v.5c.3 0 .5.2.5.5h.5zm0 3.5V5.7h-.5v3.5h.5zm8.7 28.9c0 1.8-1.5 3.3-3.3 3.3v.4c2 0 3.7-1.7 3.7-3.7h-.4zm0-17.6V38h.4V20.5h-.4zm-39.2.2h39.4v-.4H4.4v.4zm.2 17.4V20.5h-.4V38h.4zM8 41.4A3.3 3.3 0 014.6 38h-.4c0 2 1.7 3.7 3.7 3.7v-.4zm32.4 0H7.9v.4h32.4v-.4zm3.5-22.5H4.4v.4h39.4v-.4zm-.2-4.8v5h.4v-5h-.4zm-3.3-3.3c1.8 0 3.3 1.5 3.3 3.3h.4c0-2-1.6-3.7-3.7-3.7v.4zm-5.6 0h5.6v-.4h-5.6v.4zm.2 3.3v-3.5h-.5v3.5h.5zm-1 1c.6 0 1-.4 1-1h-.5c0 .3-.2.5-.4.5v.5zm-.9-1c0 .6.5 1 1 1v-.5a.5.5 0 01-.5-.5H33zm0-3.5v3.5h.5v-3.5H33zm-18 .2h18.3v-.4H15v.4zm.2 3.3v-3.5h-.5v3.5h.5zm-1 1c.6 0 1-.4 1-1h-.5c0 .3-.2.5-.4.5v.5zm-.9-1c0 .6.4 1 1 1v-.5a.5.5 0 01-.5-.5h-.5zm0-3.5v3.5h.5v-3.5h-.5zm-5.4.2h5.7v-.4H7.9v.4zm-3.3 3.3c0-1.8 1.5-3.2 3.3-3.3v-.4c-2 0-3.7 1.7-3.7 3.7h.4zm0 5v-5h-.4v5h.4zM15 36.6c0 .7-.5 1.2-1.2 1.2v.5c.9 0 1.7-.8 1.7-1.7H15zm-1.2-1.3c.7 0 1.2.6 1.2 1.3h.5c0-1-.8-1.7-1.7-1.7v.4zm-1.3 1.3c0-.7.6-1.3 1.3-1.3v-.4c-1 0-1.7.7-1.7 1.7h.4zm1.3 1.2c-.7 0-1.3-.5-1.3-1.2h-.4c0 .9.7 1.7 1.7 1.7v-.5zm22-1.2c0 .7-.6 1.2-1.3 1.2v.5c.9 0 1.7-.8 1.7-1.7h-.5zm-1.3-1.3c.7 0 1.2.6 1.2 1.3h.5c0-1-.8-1.7-1.7-1.7v.4zm-1.3 1.3c0-.7.6-1.3 1.3-1.3v-.4c-1 0-1.7.7-1.7 1.7h.4zm1.3 1.2c-.7 0-1.3-.5-1.3-1.2h-.4c0 .9.7 1.7 1.7 1.7v-.5zM15 26.2c0 .7-.5 1.3-1.2 1.3v.4c.9 0 1.7-.7 1.7-1.7H15zM13.8 25c.7 0 1.2.5 1.2 1.2h.5c0-1-.8-1.7-1.7-1.7v.5zm-1.3 1.2c0-.7.6-1.2 1.3-1.2v-.5c-1 0-1.7.8-1.7 1.7h.4zm1.3 1.3c-.7 0-1.3-.6-1.3-1.3h-.4c0 1 .7 1.7 1.7 1.7v-.4zm20.7.4c.9 0 1.7-.7 1.7-1.7h-.5c0 .7-.5 1.3-1.2 1.3v.4zm-1.7-1.7c0 1 .7 1.7 1.7 1.7v-.4c-.7 0-1.3-.6-1.3-1.3h-.4zm1.7-1.7c-1 0-1.7.8-1.7 1.7h.4c0-.7.6-1.2 1.3-1.2v-.5zm1.7 1.7c0-1-.8-1.7-1.7-1.7v.5c.7 0 1.2.5 1.2 1.2h.5zm-10.8 0c0 .7-.6 1.3-1.3 1.3v.4c1 0 1.7-.7 1.7-1.7h-.4zM24 25c.7 0 1.3.5 1.3 1.2h.4c0-1-.8-1.7-1.7-1.7v.5zM23 26.2c0-.7.5-1.2 1.2-1.2v-.5c-1 0-1.7.8-1.7 1.7h.5zm1.2 1.3c-.7 0-1.2-.6-1.2-1.3h-.5c0 1 .8 1.7 1.7 1.7v-.4zm0 10.8c1 0 1.7-.8 1.7-1.7h-.4c0 .7-.6 1.2-1.3 1.2v.5zm-1.7-1.7c0 .9.8 1.7 1.7 1.7v-.5c-.7 0-1.2-.5-1.2-1.2h-.5zm1.7-1.7c-1 0-1.7.7-1.7 1.7h.5c0-.7.5-1.3 1.2-1.3v-.4zm1.7 1.7c0-1-.8-1.7-1.7-1.7v.4c.7 0 1.3.6 1.3 1.3h.4z" fill="currentColor" mask="url(#a)"/>
  </symbol>
  <symbol id="analytics" viewBox="0 0 24 24" fill="currentColor">
    <g fill="none" fill-rule="evenodd" stroke="currentColor" stroke-linecap="round" stroke-linejoin="round" stroke-width="1.2">
      <path d="M4 4v16h16"/>
      <path d="M7 14l3.4-3.4L14 13 19 8"/>
    </g>
  </symbol>
  <symbol id="design" viewBox="0 0 22 24" fill="currentColor">
    <path fill='currentColor' d='M2.9 22.6c1.1-.8 2.6-1.9 4.3-3.3 3.2-2.7 7-6.1 9.8-8.8 4.1-.9 5-3.8 5-6 0-2-.7-3.8-.8-3.9-.1-.2-.3-.3-.5-.3s-.3.2-.4.4c-.1 1.3-.9 1.5-2.5 1.8-1.8.4-4.1.8-4.5 4.4-.6.6-1.2 1.2-1.8 1.9-2.2 2.3-4.7 5-6.7 7.3C0 21.8 0 22.7 0 23c0 .2.1.4.2.5.4.4 1.1.2 2.7-.9zM13.8 7.7l2.4 2.3c-.4.4-.9.9-1.4 1.3L12.5 9c.4-.4.9-.8 1.3-1.3zm3.1 1.9L14.2 7c.4-2.9 2.1-3.2 3.8-3.6 1-.2 2.1-.4 2.7-1.3.2.6.3 1.5.3 2.3.1 2.8-1.3 4.5-4.1 5.2zM1 22.7c.3-.6 1.2-2.1 4.5-6 1.9-2.2 4.2-4.8 6.3-7l2.3 2.3c-2.2 2.1-4.8 4.4-7.1 6.3-3.9 3.2-5.4 4.2-6 4.4z'/>
  </symbol>
  <symbol id="service" viewBox="0 0 24 24" fill="currentColor">
    <g fill="none" fill-rule="evenodd">
      <circle cx="12" cy="12" r="8.5" stroke="currentColor" stroke-width="1.2"/>
      <path fill="currentColor" d="M11.01 13.562v-.434c0-.375.08-.7.24-.978.161-.278.454-.572.88-.885.41-.293.68-.531.811-.715.131-.183.197-.388.197-.615 0-.254-.094-.447-.282-.58-.187-.133-.449-.2-.785-.2-.586 0-1.254.192-2.004.575L9.43 8.447a5.582 5.582 0 0 1 2.771-.733c.805 0 1.444.194 1.919.58.475.387.712.903.712 1.547 0 .43-.098.801-.293 1.114-.195.312-.566.664-1.113 1.054-.375.278-.613.488-.712.633-.1.145-.15.334-.15.568v.352h-1.552zm-.187 2.004c0-.328.088-.576.264-.744.176-.168.431-.252.767-.252.325 0 .576.086.753.258.178.171.267.418.267.738 0 .308-.09.552-.27.73-.18.177-.43.266-.75.266-.328 0-.582-.087-.761-.26-.18-.175-.27-.42-.27-.736z"/>
    </g>
  </symbol>
  <symbol id="modules" viewBox="0 0 22 22" fill="currentColor">
    <defs/>
    <path fill="currentColor" d="M21.8 12.1l-5.1-2.8V3.7c0-.2-.1-.3-.2-.4L11.2.4a.3.3 0 00-.4 0L5.5 3.3c-.1.1-.2.2-.2.4v5.6L.2 12.1c-.1.1-.2.2-.2.4v5.9c0 .2.1.3.2.4l5.3 2.9c.1 0 .1.1.2.1s.1 0 .2-.1l5.1-2.8 5.1 2.8c.1 0 .1.1.2.1s.1 0 .2-.1l5.3-2.9c.2-.1.3-.4.2-.6-.1-.2-.4-.3-.6-.2l-4.6 2.6v-4.9l4.4-2.5v4.9l-.9.5c-.2.1-.3.4-.2.6.1.2.4.3.6.2l1.1-.6c.1-.1.2-.2.2-.4v-5.9c0-.2-.1-.3-.2-.4zM11 1.2l4.4 2.4L11 6.1 6.6 3.7 11 1.2zM5.3 20.5L.9 18v-4.9l4.4 2.5v4.9zm.4-5.6l-4.4-2.4L5.7 10l4.4 2.4-4.4 2.5zm4.9 3.2l-4.4 2.5v-4.9l4.4-2.5v4.9zM11 6.3c-.2 0-.4.2-.4.4v5L6.1 9.3V4.4L10.8 7h.2c.1 0 .1 0 .2-.1l4.6-2.6v4.9l-4.4 2.5v-5c0-.2-.2-.4-.4-.4zm4.9 14.2L11.5 18v-4.9l4.4 2.5v4.9zm.4-5.6l-4.4-2.4 4.4-2.4 4.4 2.4-4.4 2.4zm0 0"/>
  </symbol>
  <symbol id="settings" viewBox="0 0 24 24" fill="currentColor">
    <defs/>
    <path fill="none" stroke="currentColor" stroke-width="1.2" d="M21.44 10.95c-.03-.27-.34-.47-.61-.47a2.11 2.11 0 01-1.97-1.3 2.12 2.12 0 01.53-2.35c.2-.19.23-.5.06-.72a9.4 9.4 0 00-1.5-1.52.53.53 0 00-.72.06 2.2 2.2 0 01-2.37.53 2.11 2.11 0 01-1.29-2.06.53.53 0 00-.46-.56 9.48 9.48 0 00-2.14 0 .53.53 0 00-.47.54 2.11 2.11 0 01-1.3 2.03 2.2 2.2 0 01-2.35-.54.53.53 0 00-.72-.06 9.44 9.44 0 00-1.54 1.52.53.53 0 00.06.72c.66.6.87 1.56.53 2.37a2.2 2.2 0 01-2.07 1.29.52.52 0 00-.55.47 9.52 9.52 0 000 2.16c.03.26.35.46.62.46.83-.02 1.62.5 1.96 1.3.33.81.12 1.76-.53 2.35a.53.53 0 00-.06.72 9.44 9.44 0 001.5 1.52c.22.18.54.15.72-.06a2.19 2.19 0 012.37-.53 2.1 2.1 0 011.29 2.06.53.53 0 00.46.56 9.44 9.44 0 002.14 0 .53.53 0 00.47-.54 2.11 2.11 0 011.3-2.03 2.2 2.2 0 012.35.54.53.53 0 00.72.06 9.46 9.46 0 001.54-1.52.53.53 0 00-.06-.72 2.1 2.1 0 01-.53-2.37 2.13 2.13 0 011.94-1.3l.12.01a.53.53 0 00.56-.46 9.5 9.5 0 000-2.16zm-9.43 4.24a3.17 3.17 0 01-3.16-3.17 3.17 3.17 0 013.17-3.17 3.17 3.17 0 013.16 3.17 3.17 3.17 0 01-3.16 3.17z"/>
  </symbol>
  <symbol id="crm" viewBox="0 0 22 22" fill="currentColor">
    <defs/>
    <path fill="currentColor" stroke-linecap="round" stroke-width="2" d="M5.3 0H1.4C.6 0 0 .6 0 1.4v19.2c0 .8.6 1.4 1.4 1.4h3.8c.8 0 1.4-.6 1.4-1.4V1.4C6.7.6 6 0 5.3 0zm.4 20.6c0 .2-.2.4-.4.4H1.4a.4.4 0 01-.4-.4V1.4c0-.2.2-.4.4-.4h3.8c.2 0 .4.2.4.4v19.2zM12.9 0H9.1c-.8 0-1.4.6-1.4 1.4v8.2c0 .8.6 1.4 1.4 1.4h3.8c.8 0 1.4-.6 1.4-1.4V1.4c0-.8-.6-1.4-1.4-1.4zm.5 9.6c0 .2-.2.4-.4.4H9.1a.4.4 0 01-.4-.4V1.4c-.1-.2.1-.4.4-.4h3.8c.2 0 .4.2.4.4v8.2zM20.6 0h-3.8c-.8 0-1.4.6-1.4 1.4v13.1c0 .8.6 1.4 1.4 1.4h3.8c.8 0 1.4-.6 1.4-1.4V1.4c0-.8-.6-1.4-1.4-1.4zm.4 14.5c0 .2-.2.4-.4.4h-3.8a.4.4 0 01-.4-.4V1.4c0-.2.2-.4.4-.4h3.8c.2 0 .4.2.4.4v13.1zm0 0"/>
  </symbol>
  <symbol id="bookmark" viewBox="0 0 512.003 512.003" fill="currentColor">
    <path d="M362.668 0H149.335c-23.521 0-42.667 19.135-42.667 42.667v458.667c0 4.063 2.313 7.771 5.958 9.573 3.688 1.792 8 1.365 11.208-1.115l132.167-101.667 132.167 101.667a10.656 10.656 0 006.5 2.208c1.604 0 3.208-.365 4.708-1.094a10.683 10.683 0 005.958-9.573V42.667C405.335 19.135 386.189 0 362.668 0zm21.333 479.667l-121.5-93.458a10.674 10.674 0 00-13 0l-121.5 93.458v-437c0-11.76 9.563-21.333 21.333-21.333h213.333c11.771 0 21.333 9.573 21.333 21.333v437z"/>
   </symbol>
</svg>
