<svg version="1.1" xmlns="http://www.w3.org/2000/svg" xmlns:xlink="http://www.w3.org/1999/xlink">

  <symbol id="dashboard" viewBox="0 0 24 24" fill="currentColor">
    <path d="M21.375 0H2.625C1.20337 0 0.046875 1.15649 0.046875 2.57812V17.2031C0.046875 18.6248 1.20337 19.7812 2.625 19.7812H8.48438V22.5938H6.375C5.98663 22.5938 5.67188 22.9085 5.67188 23.2969C5.67188 23.6852 5.98663 24 6.375 24H17.625C18.0134 24 18.3281 23.6852 18.3281 23.2969C18.3281 22.9085 18.0134 22.5938 17.625 22.5938H15.5156V19.7812H21.375C22.7966 19.7812 23.9531 18.6248 23.9531 17.2031V2.57812C23.9531 1.15649 22.7966 0 21.375 0ZM1.45312 2.57812C1.45312 1.93195 1.97882 1.40625 2.625 1.40625H21.375C22.0212 1.40625 22.5469 1.93195 22.5469 2.57812V14.1562H1.45312V2.57812ZM14.1094 22.5938H9.89062V19.7812H14.1094V22.5938ZM22.5469 17.2031C22.5469 17.8493 22.0212 18.375 21.375 18.375H2.625C1.97882 18.375 1.45312 17.8493 1.45312 17.2031V15.5625H22.5469V17.2031Z" fill="currentColor"/>
  </symbol>

  <symbol id="store" viewBox="0 0 24 24" fill="currentColor">
    <path fill='currentColor' fill-rule='nonzero' d='M21.574 6.124a.648.648 0 0 0-.504-.276l-12.524-.54a.648.648 0 1 0-.056 1.294l11.676.503-2.295 7.163H7.654L5.808 4.218a.648.648 0 0 0-.4-.486L2.385 2.545a.648.648 0 0 0-.474 1.206l2.688 1.056 1.878 10.226c.057.308.325.53.638.53h.311l-.711 1.977a.539.539 0 0 0 .507.723h.5c-.31.344-.5.797-.5 1.295 0 1.072.872 1.944 1.944 1.944a1.946 1.946 0 0 0 1.943-1.944c0-.498-.19-.951-.499-1.295h4.237c-.309.344-.499.797-.499 1.295 0 1.072.872 1.944 1.944 1.944a1.946 1.946 0 0 0 1.943-1.944c0-.498-.19-.951-.499-1.295h.607a.54.54 0 1 0 0-1.08H7.991l.582-1.62h9.77a.648.648 0 0 0 .617-.45l2.699-8.42a.646.646 0 0 0-.085-.569zM9.166 20.422a.865.865 0 1 1 .002-1.729.865.865 0 0 1-.002 1.73zm7.126 0a.865.865 0 1 1 .001-1.729.865.865 0 0 1-.001 1.73z' />
  </symbol>

  <symbol id="funnel" viewBox="0 0 24 24" fill="currentColor">
    <path d="M3 7h18M6 12h12m-9 5h6" fill="none" fill-rule="evenodd" stroke="currentColor" stroke-linecap="round" stroke-width="1.2"/>
  </symbol>

  <symbol id="triggers" viewBox="0 0 22 22" fill="currentColor">
    <path fill="currentColor" d="M18.24 5.58l-1.82-1.82a.88.88 0 00-1.22 0L1.74 17.22l-.02.02-1.47 1.47a.86.86 0 000 1.22l1.82 1.82c.17.17.39.25.61.25.22 0 .44-.08.61-.25l7.2-7.2.07-.05 7.68-7.7a.86.86 0 000-1.22zm-8.02 8.03a.27.27 0 00-.06.05l-7.47 7.47-1.82-1.82 1.69-1.69.01-.01 9.97-9.97 1.82 1.82-4.14 4.15zm4.75-4.75l-1.82-1.82 2.66-2.66 1.82 1.82-2.66 2.66zM19.85 1.48c.24 0 .43-.19.43-.43V.43a.43.43 0 00-.43-.43.43.43 0 00-.43.43v.62c0 .24.19.43.43.43zm0 0M19.85 4.3c.24 0 .43-.19.43-.43v-.62a.43.43 0 00-.43-.43.43.43 0 00-.43.43v.62c0 .23.19.43.43.43zm0 0M20.95 2.58h.62c.24 0 .43-.19.43-.43a.43.43 0 00-.43-.43h-.62a.43.43 0 00-.43.43c0 .24.19.43.43.43zm0 0M18.13 2.58h.62c.24 0 .43-.19.43-.43a.43.43 0 00-.43-.43h-.62a.43.43 0 00-.43.43c0 .24.2.43.43.43zm0 0M5.88 1.48c.24 0 .43-.19.43-.43V.43c0-.24-.2-.43-.43-.43a.43.43 0 00-.43.43v.62c0 .24.19.43.43.43zm0 0M5.88 4.3c.24 0 .43-.19.43-.43v-.62a.43.43 0 00-.43-.43.43.43 0 00-.43.43v.62c0 .23.19.43.43.43zm0 0M6.98 2.58h.62c.24 0 .43-.19.43-.43a.43.43 0 00-.43-.43h-.62a.43.43 0 00-.43.43c0 .24.19.43.43.43zm0 0M4.16 2.58h.62c.24 0 .43-.19.43-.43a.43.43 0 00-.43-.43h-.62a.43.43 0 00-.43.43c0 .24.19.43.43.43zm0 0M17.53 15.38a.43.43 0 00-.43.43v.62c0 .24.19.43.43.43s.43-.19.43-.43v-.62a.43.43 0 00-.43-.43zm0 0M17.53 18.2a.43.43 0 00-.43.43v.62c0 .24.19.43.43.43s.43-.19.43-.43v-.62a.43.43 0 00-.43-.43zm0 0M19.25 17.1h-.62c-.24 0-.43.19-.43.43s.19.43.43.43h.62c.24 0 .43-.19.43-.43s-.19-.43-.43-.43zm0 0M16.43 17.1h-.62c-.24 0-.43.19-.43.43s.19.43.43.43h.62c.24 0 .43-.19.43-.43s-.19-.43-.43-.43zm0 0M20.71 8.85a1.3 1.3 0 000 2.58 1.3 1.3 0 000-2.58zm0 1.72c-.24 0-.43-.19-.43-.43s.19-.43.43-.43.43.19.43.43-.19.43-.43.43zm0 0M11 19.42A1.3 1.3 0 0011 22a1.3 1.3 0 000-2.58zm0 1.72c-.24 0-.43-.19-.43-.43s.19-.43.43-.43.43.19.43.43-.19.43-.43.43zm0 0M1.29 10.23a1.3 1.3 0 000-2.58 1.3 1.3 0 000 2.58zm0-1.72c.24 0 .43.19.43.43s-.19.43-.43.43a.43.43 0 01-.43-.43c0-.23.19-.43.43-.43zm0 0"/>
  </symbol>

  <symbol id="yandex" viewBox="0 0 24 24" fill="currentColor">
    <g fill="none" fill-rule="evenodd">
      <rect width="17" height="17" x="3.5" y="3.5" stroke="currentColor" stroke-width="1.2" rx="1.7"/>
      <path fill="currentColor" d="M15 18.2h-1.3v-4.6h-1l-2 4.6H9l2.6-4.7s-2.2-1-2.2-3.6 1.8-4.1 3.3-4.1H15v12.4zM12.5 6.8c-.2 0-1.6.4-1.6 2.9 0 1 .2 1.8.6 2.2.3.4.8.6 1.3.6h.9V6.8h-1.2z"/>
    </g>
  </symbol>

  <symbol id="googleIcon" viewBox="0 0 5110 5110" fill="currentColor">
    <path d='M227 4893c-4-3-7-980-7-2170V560l33-42c17-24 69-78 114-122 46-43 81-82 78-86s2-13 10-20 15-9 15-6c0 4 14-9 31-29l31-35h1594l129 133c72 73 328 335 570 582s489 500 549 562c59 62 112 111 116 108 8-5 77 63 71 72-5 8 261 273 270 268 8-6 22 12 25 32 1 7 237 250 523 540 350 354 521 534 521 548 0 13-86 108-236 260-129 132-344 352-477 489l-242 249-477-6-478-5v848H1612c-758 0-1382-3-1385-7zm3323-3226c0-2-15-16-32-33l-33-29 29 33c28 30 36 37 36 29zm-2249-254c106-47 169-146 169-264 0-87-22-148-76-208-81-90-211-120-320-72-52 24-117 79-108 93 3 5 0 7-7 6-6-2-23 18-37 44-20 39-25 63-25 127-1 82 25 167 46 154 6-3 7-1 3 6-10 15 13 43 27 34 5-3 7-2 4 4-4 6 4 19 16 30 77 70 209 90 308 46z' fill='#4889f4'/>
    <path d='M227 4893c-10-9-9-2501 1-2506 4-3 142 120 308 272 165 152 565 519 889 816 323 297 593 543 600 547 8 5 56-40 141-135 70-78 265-294 432-479l305-338 36 32c39 34 871 818 961 906l55 54-482-5-483-5v848H1612c-758 0-1382-3-1385-7z' fill='#a2c3fa'/>
    <path d='M227 4893c-11-10-8-2503 3-2503 5 0 66 53 136 118 70 64 245 225 389 357s476 438 739 680 491 450 506 463c28 22 30 22 497 28 257 3 474 7 481 9 9 3 12 98 12 429v425l-1378 1c-758 0-1381-3-1385-7z' fill='#e0e0e0'/>
  </symbol>


  <symbol id="googleMenuIcon" viewBox="0 0 24 24" fill="currentColor">
    <path fill="none" stroke="currentColor" stroke-width="1.2" d="M12 10.3v3.4h4.81A5.11 5.11 0 0112 17.1 5.106 5.106 0 016.9 12c0-2.812 2.288-5.1 5.1-5.1 1.219 0 2.392.437 3.303 1.23l2.234-2.563A8.424 8.424 0 0012 3.5c-4.687 0-8.5 3.813-8.5 8.5 0 4.687 3.813 8.5 8.5 8.5 4.687 0 8.5-3.813 8.5-8.5v-1.7H12z"/>
  </symbol>


  <symbol id="avito" viewBox="0 0 400 400" fill="currentColor">
    <g fill-rule="evenodd">
      <path d="M119 64.4l-4.4.8a60.5 60.5 0 00-27.4 107 73.7 73.7 0 0020.8 10.6l3 .8c8.2 2 20.3 2 28.2-.2a63.1 63.1 0 0021-9.8 64.2 64.2 0 0022-30.5c1.4-3.4 3-13.2 3-18.6a65 65 0 00-6.8-27.5 64.8 64.8 0 00-34.5-29.5 51 51 0 00-9.1-2.3l-4.4-.8a53 53 0 00-11.4 0" fill="#05abfb"/>
      <path d="M258.2 190.8a74 74 0 00-65.5 54.7 76.5 76.5 0 001.6 41.1 74.9 74.9 0 0043.1 45c.9.4 1.9.8 2.3.8l1.8.6c8.6 4.2 36 4.2 44-.1a4 4 0 011.5-.5c.4 0 1.5-.4 2.5-.8l3.3-1.5a71.7 71.7 0 0014.8-8.8 90.1 90.1 0 0017.3-19 73.8 73.8 0 00-5.5-85.1A85.5 85.5 0 00308 206a103 103 0 00-17.8-10.2 118.5 118.5 0 00-16.7-4.4c-3.7-.7-10.7-1-15.3-.6" fill="#94cb24"/>
      <path d="M34.5 16.2c-.1.4-.7.6-1.5.6-1 0-1.4.2-1.4.6 0 .4-.4.6-1.4.6-1.1 0-1.4.2-1.4.8 0 .6-.3.8-1.2.8-.7 0-1.3.2-1.5.6 0 .3-.4.6-.7.6-.3 0-.6.3-.6.6s-.3.6-.6.6-.6.4-.6.8c0 .5-.3.8-.8.8-.4 0-.8.3-.8.6s-.3.6-.6.6-.6.3-.6.6-.3.6-.6.7c-.4.2-.6.8-.6 1.5 0 1-.2 1.2-.8 1.2-.6 0-.8.3-.8 1.4 0 1-.2 1.4-.6 1.4-.4 0-.6.4-.6 1.3 0 .7-.3 1.6-.6 2-1 1.3-.9 329.6 0 330.3.3.3.6 1.1.6 1.9 0 .8.2 1.4.6 1.6.3 0 .6.7.6 1.3 0 1 .2 1.2.8 1.2.6 0 .8.3.8 1.4 0 1 .2 1.4.6 1.4.3 0 .6.3.6.6s.3.6.6.6.6.3.6.6c0 .4.4.8.8.9.4.1.8.4.8.7 0 .4.3.6.6.6s.6.3.6.6.3.6.6.6.6.3.6.6.6.7 1.4.8c.8.2 1.4.5 1.4.8 0 .4.5.6 1.4.6 1 0 1.4.2 1.4.6 0 .4.4.6 1.2.6.7 0 1.6.4 2 .8 1.3 1.3 329 1.3 330.3 0 .5-.4 1.4-.8 2.1-.8.7 0 1.3-.2 1.5-.6 0-.3.7-.6 1.3-.6.8 0 1.2-.2 1.2-.6 0-.3.3-.6.8-.6 1.2 0 2-.4 2-1 0-.3.3-.6.6-.6s.6-.3.6-.6.4-.6.8-.6.8-.3.8-.6.3-.6.6-.6.6-.4.6-.8.3-.8.6-.8.6-.3.6-.6.3-.6.6-.6c.6 0 1-.8 1-2 0-.5.3-.8.6-.8.4 0 .6-.4.6-1.2 0-.8.2-1.2.6-1.2.4 0 .6-.4.6-1.4 0-.9.3-1.8.8-2.3 1.3-1.4 1.3-329 0-329.9-.6-.4-.8-1-.8-2 0-1.2-.2-1.6-.6-1.6-.4 0-.6-.4-.6-1.4 0-1-.2-1.4-.6-1.4-.3 0-.6-.3-.6-.8 0-1.2-.4-2-1-2-.3 0-.6-.3-.6-.6s-.3-.6-.6-.6a.6.6 0 01-.6-.6c0-.3-.2-.6-.6-.6-.3 0-.6-.4-.7-.8-.1-.4-.5-.8-.9-.8-.3 0-.6-.3-.6-.6s-.3-.6-.6-.6a.6.6 0 01-.6-.6c0-.4-.4-.6-1.4-.6-1.1 0-1.4-.2-1.4-.8 0-.6-.3-.8-1.2-.8-.6 0-1.2-.3-1.3-.6-.2-.4-.8-.6-1.8-.6s-1.7-.2-1.8-.6c-.4-1-330.2-1-330.6 0M135.2 65a46.1 46.1 0 0111.2 3l3.4 1.4a61.5 61.5 0 0134.2 68.4 58 58 0 01-7.6 19 63 63 0 01-21.4 21 57.3 57.3 0 01-14.2 6 61.9 61.9 0 01-45.7-5.5c-6.8-3.6-19.5-15-19.5-17.5a61.3 61.3 0 01-9.4-18.8A61.4 61.4 0 01109 66a60.4 60.4 0 0126.2-1m133 12.6c13.4 1.8 24.8 8 32.2 17.4a49.6 49.6 0 017.8 46.8c-2.2 9.4-13.7 22-24.6 27a48.3 48.3 0 01-66.4-31.1l-.6-2.5c-1.3-3.6-1.2-16.9.2-21l1.2-4c1.8-5.7 6-12.9 10.2-17.5a52.7 52.7 0 0111.8-9.2c4.6-3.9 19.7-7 28.2-5.9m5.3 113.8l3.8.6c.9 0 9.9 2.6 13 3.7A103 103 0 01308 206l2.6 2.2a85.5 85.5 0 0110.2 10.6 73.8 73.8 0 012.4 86.2 90.1 90.1 0 01-18.6 18.5 71.7 71.7 0 01-28.6 11.8 77.9 77.9 0 01-40.5-4.5 81.2 81.2 0 01-19.1-11.7 71.7 71.7 0 01-23.2-36.1 76.5 76.5 0 01-.5-37.5c1.3-3.9 3.5-10.2 4-11.1l2-4.2a72.7 72.7 0 0174.8-38.8m-144.3 39.4a32.7 32.7 0 0127.6 23.8c.7.9 1.3 7.7 1 11.8a33 33 0 01-17.4 26.8c-2.4 2.8-19.8 4.8-24 2.7-.7-.4-1.6-.7-1.9-.7-1 0-4.8-2-7.7-3.8-2.3-1.5-4-3.1-7.6-7a35 35 0 01-6-29.5c3.2-15 20-26.2 36-24.1" fill="#fbfbfb"/>
      <path d="M259.2 77.5a52.6 52.6 0 00-20.1 6.5c-1 0-8 5.7-10.9 8.7a50.6 50.6 0 00-11.4 21.5 57.8 57.8 0 00.4 23.5 35.3 35.3 0 004 10.2 49.6 49.6 0 0023.2 21.3c8.7 5.2 26.8 5 38.6-.4a11 11 0 012-.8l2-1.2a13 13 0 012-1.2 51 51 0 0021.2-31.2c3-12-1-28-9.8-39.4a48.9 48.9 0 00-41.2-17.5" fill="#fb6363"/>
      <path d="M118.5 64.3h1.4c.4-.1 0-.2-.7-.2-.8 0-1 0-.7.2m-3.7.5c-1.4.3-1.4.3-.2.3.7 0 1.7-.1 2.2-.3 1.3-.4 0-.4-2 0m17.8 0c.8.3 3.3.6 3 .3l-2-.4c-1.2-.2-1.5-.1-1 0M109.2 66c-.4.3-.3.4.6.2 1.5-.4 1.8-.6.8-.6a3 3 0 00-1.4.4m-8.4 2.8c-.8.4-1.2.8-1 .8l1.8-.8c.8-.4 1.2-.8 1-.8a7 7 0 00-1.8.8m46.4-.2l1.4.6c.2 0 0-.3-.6-.6l-1.4-.6c-.2 0 0 .3.6.6m5.5 2.6c1.7 1 2.3 1 .7 0l-1.6-.8c-.2 0 .2.4 1 .8m4.8 2.5l1.5 1.3c.8.6 1.3 1 1.2.7-.4-.5-2.7-2.3-2.7-2m-71.2 3.8a83.4 83.4 0 00-8.4 8.7 84 84 0 018.2-8.1c2.8-2.4 2.9-2.8.2-.6m78 1.3c0 .2 1.2 1.5 2.7 3a107.4 107.4 0 015.4 5.6c-.5-1-8-9-8-8.6M74.3 90.6c-.7 1-1.1 1.8-1 1.8a9 9 0 001.4-1.8c.7-1 1.1-1.8 1-1.8a9 9 0 00-1.4 1.8m101.9 2.8c.6 1 1.1 1.7 1.2 1.6.2-.2-1.8-3.4-2.1-3.4l.9 1.8M71.6 95a8.4 8.4 0 00-1.1 2.4c0 .1.7-.8 1.4-2 1.7-3 1.5-3.2-.3-.4m106.8 2l1 2.2c.5 1 1 1.6 1 1.4l-1-2.2c-.5-1-1-1.6-1-1.4m-109.7 4c-1 2-.8 2.3.1.5.5-.9.8-1.6.7-1.7 0-.1-.5.4-.8 1.2m-1.6 4.3l-.7 2.3c0 .3.4-.4.8-1.6 1-2.6.8-3.2-.1-.7m-1.3 4.1c-.1.6-.2 1.2 0 1.3l.4-1c.1-.5.2-1 0-1.2l-.4 1m117.6 1.1c.4 1.5.6 1.8.6.8 0-.5-.2-1-.4-1.4-.3-.4-.4-.3-.2.6m.7 3.2c0 .9.2 2.5.5 3.6l.6 2-.2-1.8-.6-3.6-.3-1.8v1.6m-119.7 2.4a12 12 0 00-.3 3.4c.1.3.3 0 .3-.6 0-.7.2-1.8.4-2.5.3-.7.4-1.7.3-2.2 0-.5-.4.4-.7 2m120.8 8.2a70.8 70.8 0 01-3.6 20.6c0 2 1.5-2.5 2.4-7.3l.9-3.8c.4-2 1-11.7.6-13-.1-.4-.2 1.1-.3 3.5m-121.1 5.8a47.3 47.3 0 002 10.3c0-.7-.4-2.8-.8-4.8-1.1-6.8-1.2-7-1.3-5.5m2.4 12.3c0 .4.2 1.3.5 1.8l.9 2.2a62.2 62.2 0 007.8 14.2c0 2.5 12.7 13.9 19.5 17.5l2.9 1.5a22 22 0 005.3 2.2c.4 0 .8.2.9.4.1.2.8.5 1.5.6l3.1.8a61.9 61.9 0 0048.4-7.3 63 63 0 0024.3-30.2c0-.2-.3 0-.6.6L179 151a64.2 64.2 0 01-18.8 22.6 63 63 0 01-26.2 10.8 63.7 63.7 0 01-29.9-2.8c-1.8 0-13.7-6.7-16.9-9.4A64.8 64.8 0 0168 145.8c0-1.2-1.5-4.2-1.6-3.2m226.6 20c-.7.7-.9 1-.4.7.8-.4 2.1-1.7 1.7-1.7l-1.3 1m-13.4 7.6c-1.3.7-.8.8.9 0 .7-.3 1-.6.7-.6-.3 0-1 .3-1.6.6m-4.4 1.4c-.5.3-.5.4 0 .4l1.2-.4c.5-.3.5-.4 0-.4l-1.2.4m-18.6 1.2c.7.2 1.6.3 2.2.3.9 0 .9 0-.2-.3-.7-.2-1.7-.3-2.2-.3-.9 0-.9 0 .2.3m11.6 0c-1 .3-1 .3-.2.3.6 0 1.5-.1 2.2-.3 1-.3 1-.3.2-.3-.5 0-1.5.1-2.2.3m-6.5.7h3.6c1 0 0-.2-1.9-.2-2 0-2.7.1-1.7.2m-140.5 57.2a34 34 0 00-28.8 27.5 35 35 0 006.8 26.2c3.5 3.9 5.3 5.5 7.6 7 3 1.9 6.8 3.8 7.7 3.8.3 0 1.2.3 2 .7 4 2 21.5.1 23.9-2.7l2.4-1.5a33 33 0 0015-25.3 37.6 37.6 0 00-1.6-13.4c-2.8-13.1-19.8-24-35-22.3" fill="#a56cf0"/>
    </g>
  </symbol>


  <symbol id="avitoMenuIcon" viewBox="0 0 24 24" fill="currentColor">
    <path fill="none" stroke="currentColor" stroke-width="1.2" d="M16 9.5a3 3 0 110-6 3 3 0 010 6zm0 12a5 5 0 110-10 5 5 0 010 10zm-9.5-3a2.5 2.5 0 110-5 2.5 2.5 0 010 5zm.5-8a4 4 0 110-8 4 4 0 010 8z"/>
  </symbol>


  <symbol id="vk" viewBox="0 0 304.36 304.36" fill="currentColor">
    <path d="M262 175.6c10 9.8 20.7 19.1 29.8 30 4 4.8 7.7 9.8 10.6 15.4 4.1 8 .4 16.7-6.7 17.1h-44.3a34.2 34.2 0 01-28.3-11.5c-6.1-6.2-11.8-12.9-17.7-19.3a42 42 0 00-8-7.1c-6-4-11.3-2.7-14.8 3.6a46.6 46.6 0 00-4.6 20.7c-.5 10.4-3.7 13.1-14.1 13.6-22.5 1-43.7-2.3-63.5-13.6-17.4-10-31-24-42.7-40A538.1 538.1 0 011.5 84.4C-2 76.4.5 72.2 9.3 72c14.5-.3 29-.3 43.4 0 5.9 0 9.8 3.4 12 9a269 269 0 0029.5 54.5c3.2 4.5 6.4 9 11 12.2 5.2 3.5 9.1 2.4 11.6-3.4 1.5-3.6 2.2-7.5 2.5-11.4 1.2-13.4 1.3-26.8-.7-40-1.2-8.4-6-13.8-14.2-15.4-4.3-.8-3.6-2.4-1.6-4.8 3.6-4.1 7-6.7 13.6-6.7h50.1c8 1.5 9.7 5 10.7 13v55.7c0 3 1.6 12.2 7.2 14.2 4.4 1.4 7.3-2.1 10-5 12-12.7 20.5-27.7 28.2-43.3a283 283 0 009.1-21c2.1-5.3 5.4-8 11.3-7.8h48.3c1.4 0 2.9 0 4.2.3 8.2 1.4 10.4 4.9 7.9 12.8-4 12.4-11.7 22.8-19.2 33.2-8 11.2-16.6 22-24.6 33.1-7.3 10.2-6.8 15.4 2.3 24.3zm0 0" fill="#4984ad" fill-rule="evenodd" clip-rule="evenodd"/>
  </symbol>


  <symbol id="vkMenuIcon" viewBox="0 0 24 24" fill="currentColor">
    <path fill="none" stroke="currentColor" stroke-width="1.2" d="M21.8 16.2c0-.1-.4-.8-2-2.3-1.6-1.6-1.4-1.3.6-4 1.2-1.6 1.7-2.6 1.6-3-.2-.5-1-.4-1-.4h-3l-.5.1-.2.3s-.5 1.3-1.2 2.4c-1.3 2.3-1.8 2.4-2 2.2-.6-.3-.4-1.3-.4-2 0-2.2.3-3.1-.7-3.4a5 5 0 00-1.4-.1c-1 0-2 0-2.5.3-.3.1-.6.5-.4.5.2 0 .6.1.9.5.3.4.3 1.3.3 1.3s.1 2.6-.4 3c-.5.2-1-.3-2.2-2.3-.6-1.1-1-2.3-1-2.3L6 6.7l-.5-.2H2.7s-.5 0-.6.2c-.2.2 0 .5 0 .5s2.2 5.3 4.7 7.9c2.3 2.4 5 2.3 5 2.3H13s.3 0 .5-.3c.2-.2.2-.5.2-.5s0-1.6.7-1.8c.7-.3 1.7 1.5 2.7 2.2.7.5 1.3.4 1.3.4h2.7s1.4-.1.7-1.2z"/>
  </symbol>


  <symbol id="bonus" viewBox="0 0 24 24" fill="currentColor">
    <path fill="currentColor" stroke="currentColor" stroke-width=".4" d="M17 5.5A2 2 0 0015.6 2c-.9 0-2.8 1.3-3.6 2.4C11.2 3.3 9.2 2 8.4 2A2 2 0 007 5.4H3v5h1V20h16v-9.6h1v-5h-4zm-1.4-2.7c.7 0 1.2.5 1.2 1.3 0 .7-.4 1.2-1 1.3h-3.1l-.3-.1c0-.7 2.3-2.5 3.2-2.5zm-7.2 0c.8 0 3.2 1.8 3.2 2.5l-.3.1h-3c-.7 0-1.1-.6-1.1-1.3 0-.7.5-1.3 1.2-1.3zm1.3 16.4H4.8v-8.8h4.9v8.8zm0-9.5h-6V6.3h6v3.4h0zm3.8 9.5h-3v-13h3v13zm5.7 0h-4.9v-8.8h4.9v8.8zm1-9.5h-5.9V6.3h6v3.4h0z"/>
  </symbol>


  <symbol id="partners" viewBox="0 0 24 24" fill="currentColor">
    <path fill="currentColor" d="M17.93 6.68l-.94-.47-1.65-.82a3.69 3.69 0 00-3.48.1l-.22.12a.46.46 0 00-.1-.03l-1.8-.2a3.56 3.56 0 00-3.28 1.3H2.53a.53.53 0 00-.53.54v10.44c0 .3.24.53.53.53h4.15l3.89.91a5.86 5.86 0 004.73-.92h6.17a.53.53 0 00.53-.52V7.2a.53.53 0 00-.53-.52h-3.54zm.46 1.06v9.39H15.7l-.03-7.84c0-.2-.11-.38-.3-.47l-1.55-.77a.6.6 0 00-.58-.08l-2.68 1.44a.85.85 0 11-.83-1.5l2.63-1.5a2.63 2.63 0 012.5-.08l2.7 1.35a.52.52 0 00.24.06h.58zm-15.33 0h1.5v9.39h-1.5V7.74zm3.8 9.4a.5.5 0 00-.12 0H5.6v-9.4h1.11a.53.53 0 00.44-.23A2.5 2.5 0 019.6 6.43l.5.05-.47.28c-.02 0-.02.02-.04.03L9.22 7a1.91 1.91 0 101.86 3.34l2.4-1.29 1.15.57.02 7.74a4.81 4.81 0 01-3.84.72l-3.95-.93zm14.08-.01h-1.5V7.74h1.5v9.4z"/>
  </symbol>

  <symbol id="reseller" viewBox="0 0 22 22" fill="currentColor">
    <path fill="currentColor" d="M18.7 7.7a7.7 7.7 0 00-15.4 0c0 2.3 1.1 4.4 2.7 5.8l.1.1c1.3 1.1 3 1.8 4.9 1.8 1.8 0 3.5-.7 4.9-1.7l.2-.1a8.7 8.7 0 002.6-5.9zM4 7.7a7 7 0 017-7 7 7 0 017 7c0 1.9-.7 3.6-2 4.8-.2-.9-.8-2.5-2.6-3.5a3 3 0 00.6-1.9C14 5.4 12.6 4 10.9 4A3 3 0 008 7.1c0 .7.2 1.4.6 1.9A5.3 5.3 0 006 12.5a7 7 0 01-2-4.8zm4.7-.6c0-1.3 1.1-2.3 2.3-2.3 1.3 0 2.3 1.1 2.3 2.3 0 1.3-1.1 2.3-2.3 2.3-1.3.1-2.3-1-2.3-2.3zm-2 6c0-.6.4-2.5 2.5-3.6a3 3 0 003.8-.1c2.1 1.1 2.4 3 2.5 3.6a6.7 6.7 0 01-4.4 1.5c-1.7.1-3.2-.4-4.4-1.4zm0 0M2.7 18.3c-1.5 0-2.7-1.2-2.7-2.7S1.2 13 2.7 13s2.7 1.2 2.7 2.7-1.3 2.6-2.7 2.6zm0-4.6c-1.1 0-1.9.9-1.9 1.9s.9 1.9 1.9 1.9 1.9-.9 1.9-1.9-.9-1.9-1.9-1.9zM19.3 18.3c-1.5 0-2.7-1.2-2.7-2.7s1.2-2.7 2.7-2.7 2.7 1.2 2.7 2.7-1.2 2.7-2.7 2.7zm0-4.6c-1.1 0-1.9.9-1.9 1.9s.9 1.9 1.9 1.9a1.9 1.9 0 100-3.8zM11 22c-1.5 0-2.7-1.2-2.7-2.7s1.2-2.7 2.7-2.7 2.7 1.2 2.7 2.7S12.5 22 11 22zm0-4.6c-1.1 0-1.9.9-1.9 1.9s.9 1.9 1.9 1.9 1.9-.9 1.9-1.9-.8-1.9-1.9-1.9zM11 16.4c-.2 0-.4-.2-.4-.4s.2-.4.4-.4.4.2.4.4-.2.4-.4.4z"/>
    <path d="M5 13.7a.4.4 0 01-.4-.4c0-.2.2-.4.4-.4s.4.2.4.4c-.1.2-.2.4-.4.4zM17.1 13.7a.4.4 0 01-.4-.4c0-.2.2-.4.4-.4s.4.2.4.4c-.1.2-.2.4-.4.4z"/>
  </symbol>

  <symbol id="instagram" viewBox="0 0 512 512" fill="currentColor">
      \t<linearGradient id="SVGID_1_" gradientUnits="userSpaceOnUse" x1="-46.0041" y1="634.1208" x2="-32.9334" y2="647.1917" gradientTransform="matrix(32 0 0 -32 1519 20757)">
        <stop offset="0" style="stop-color:#FFC107" />\t<stop offset="0.507" style="stop-color:#F44336" />\t<stop offset="0.99" style="stop-color:#9C27B0" />\t
      </linearGradient>\t<path style="fill:url(#SVGID_1_);" d="M352,0H160C71.648,0,0,71.648,0,160v192c0,88.352,71.648,160,160,160h192\tc88.352,0,160-71.648,160-160V160C512,71.648,440.352,0,352,0z M464,352c0,61.76-50.24,112-112,112H160c-61.76,0-112-50.24-112-112\tV160C48,98.24,98.24,48,160,48h192c61.76,0,112,50.24,112,112V352z" />\t<linearGradient id="SVGID_2_" gradientUnits="userSpaceOnUse" x1="-42.2971" y1="637.8279" x2="-36.6404" y2="643.4846" gradientTransform="matrix(32 0 0 -32 1519 20757)">
        <stop offset="0" style="stop-color:#FFC107" />\t<stop offset="0.507" style="stop-color:#F44336" />\t<stop offset="0.99" style="stop-color:#9C27B0" />
      </linearGradient><path style="fill:url(#SVGID_2_);" d="M256,128c-70.688,0-128,57.312-128,128s57.312,128,128,128s128-57.312,128-128\tS326.688,128,256,128z M256,336c-44.096,0-80-35.904-80-80c0-44.128,35.904-80,80-80s80,35.872,80,80 C336,300.096,300.096,336,256,336z" />\t<linearGradient id="SVGID_3_" gradientUnits="userSpaceOnUse" x1="-35.5456" y1="644.5793" x2="-34.7919" y2="645.3331" gradientTransform="matrix(32 0 0 -32 1519 20757)">
        \t\t<stop offset="0" style="stop-color:#FFC107" />\t\t<stop offset="0.507" style="stop-color:#F44336" />\t\t<stop offset="0.99" style="stop-color:#9C27B0" />\t
      </linearGradient><circle style="fill:url(#SVGID_3_);" cx="393.6" cy="118.4" r="17.056" />
  </symbol>


  <symbol id="instagramMenuIcon" viewBox="0 0 24 24" fill="currentColor">
    <g fill="none" stroke="currentColor" stroke-width="1.2">
      <path d="M16.1 3H8A4.9 4.9 0 003 7.9V16A4.9 4.9 0 007.9 21H16a4.9 4.9 0 004.9-4.9V8A4.9 4.9 0 0016.1 3zM12 17a5 5 0 01-5-5 5 5 0 015-5 5 5 0 015 5 5 5 0 01-5 5z"/>
      <path d="M17 6.4a.4.4 0 100 .8.4.4 0 000-.8z"/>
    </g>
  </symbol>

  <symbol id="ok" viewBox="0 0 21 36" fill="currentColor">
    <path fill="currentColor" d="M10.5 18.6c5 0 9-4.1 9-9 0-5-4.1-9-9-9s-9 4.1-9 9 4 9 9 9zm0-12.8a3.7 3.7 0 110 7.4 3.7 3.7 0 110-7.4zM14.2 25.9c1.8-.4 3.6-1.1 5.2-2.2a2.6 2.6 0 10-2.8-4.4 11.6 11.6 0 01-12.2 0 2.6 2.6 0 00-3.6.8c-.8 1.2-.4 2.9.8 3.7A17 17 0 006.8 26l-5 5.1a2.7 2.7 0 001.9 4.5c.7 0 1.4-.3 1.9-.8l5-5 5 5c1 1 2.7 1 3.7 0s1-2.7 0-3.7l-5.1-5.2z"/>
  </symbol>

  <symbol id="okMenuIcon" viewBox="0 0 24 24" fill="currentColor">
    <path fill="none" stroke="currentColor" stroke-width="1.2" d="M12.388 5.722c1.098 0 1.992.863 1.992 1.923s-.894 1.923-1.992 1.923c-1.098 0-1.993-.863-1.993-1.923s.895-1.923 1.993-1.923zm0 6.567c-2.654 0-4.812-2.083-4.812-4.644S9.734 3 12.388 3C15.042 3 17.2 5.084 17.2 7.645c0 2.561-2.158 4.644-4.812 4.644zm1.959 3.791l2.69 2.597a1.326 1.326 0 010 1.924 1.445 1.445 0 01-1.993 0L12.4 18.05 9.757 20.6a1.434 1.434 0 01-.998.399c-.36 0-.72-.133-.996-.399a1.328 1.328 0 010-1.924l2.69-2.597a9.211 9.211 0 01-2.795-1.117 1.333 1.333 0 01-.441-1.876c.414-.637 1.284-.829 1.943-.428a6.296 6.296 0 006.48 0c.659-.401 1.529-.21 1.943.428a1.334 1.334 0 01-.442 1.876 9.197 9.197 0 01-2.794 1.117z"/>
  </symbol>

  <symbol id="telegram" viewBox="0 0 512 512">
    <circle cx="255.997" cy="256" r="255.997" fill="#41b4e6"/>
    <path d="M512 256.003c0-6.238-.235-12.419-.673-18.546L405.228 131.36 106.772 248.759l114.191 114.192 1.498 5.392 1.939-1.955.008.008-1.947 1.947L348.778 494.66C444.298 457.5 512 364.663 512 256.003z" fill="#0091c8"/>
    <path fill="#fff" d="M231.138 293.3l115.691 87.347 58.399-249.287-298.457 117.399 90.817 30.081 165.743-111.176z"/>
    <path fill="#d2d2d7" d="M197.588 278.84l24.873 89.504 8.677-75.044 132.193-125.636z"/>
    <path fill="#b9b9be" d="M268.738 321.688l-46.277 46.656 8.677-75.044z"/>
  </symbol>

  <symbol id="telegramMenuIcon" viewBox="0 0 24 24" fill="currentColor">
    <g fill="none" fill-rule="evenodd">
      <path stroke="currentColor" stroke-width="1.2" d="M7.6 13.2l2.1 5.2 2.8-2.7 4.7 3.7 3.3-14.9-17 7z"/>
      <path fill="currentColor" d="M15.6 8.8l-5.2 4.7-.6 2.5-1.2-3z"/>
    </g>
  </symbol>

</svg>
