<svg width="30" height="18" viewBox="0 0 30 18" fill="none" xmlns="http://www.w3.org/2000/svg">
<path fill-rule="evenodd" clip-rule="evenodd" d="M0 0H30V12H0V0Z" fill="#B20000"/>
<path fill-rule="evenodd" clip-rule="evenodd" d="M0 12H30V18H0V12Z" fill="#429F00"/>
<path fill-rule="evenodd" clip-rule="evenodd" d="M0 0H3.98714V18H0V0Z" fill="white"/>
<path fill-rule="evenodd" clip-rule="evenodd" d="M0.189819 0.305859H0.379683V0.611719H0.189819V0.305859ZM0.759411 0.305859H1.329V0.611719H0.759411V0.305859ZM0.949275 0H1.13914V0.305859H0.949275V0ZM1.89859 0H2.08846V0.305859H1.89859V0ZM2.65805 0.305859H3.22764V0.611719H2.65805V0.305859ZM2.84791 0H3.03778V0.305859H2.84791V0ZM0.569547 0.611719H0.949275V0.914062H0.569547V0.611719ZM1.13914 0.611719H1.51887V0.914062H1.13914V0.611719ZM2.46819 0.611719H2.84791V0.914062H2.46819V0.611719ZM3.03778 0.611719H3.41751V0.914062H3.03778V0.611719ZM0.379683 0.914062H0.759411V1.21992H0.379683V0.914062ZM1.329 0.914062H1.70873V1.21992H1.329V0.914062ZM2.27832 0.914062H2.65805V1.21992H2.27832V0.914062ZM3.22764 0.914062H3.60737V1.21992H3.22764V0.914062ZM3.60737 0.305859H3.79723V0.611719H3.60737V0.305859ZM0.189819 1.21992H0.569547V1.52578H0.189819V1.21992ZM1.51887 1.21992H1.89859V1.52578H1.51887V1.21992ZM3.41751 1.21992H3.79723V1.52578H3.41751V1.21992ZM0.379683 2.13398H0.759411V2.43984H0.379683V2.13398ZM0.569547 2.43984H0.949275V2.7457H0.569547V2.43984ZM1.329 2.1375H1.70873V2.43984H1.329V2.1375ZM1.13914 2.43984H1.51887V2.7457H1.13914V2.43984ZM0.759411 2.7457H1.329V3.05156H0.759411V2.7457Z" fill="#B20000"/>
<path fill-rule="evenodd" clip-rule="evenodd" d="M0.94932 3.05151H1.13918V3.35737H0.94932V3.05151ZM2.27837 2.13745H2.6581V2.4398H2.27837V2.13745ZM2.46823 2.4398H2.84796V2.74565H2.46823V2.4398ZM3.22769 2.13745H3.60742V2.4398H3.22769V2.13745ZM3.03782 2.4398H3.41755V2.74565H3.03782V2.4398ZM2.6581 2.74565H3.22769V3.05151H2.6581V2.74565ZM2.84796 3.05151H3.03782V3.35737H2.84796V3.05151ZM1.89864 2.74214H2.0885V3.048H1.89864V2.74214ZM0 2.74214H0.189864V3.048H0V2.74214ZM3.79728 2.74214H3.98714V3.048H3.79728V2.74214ZM0.94932 4.26792H1.13918V4.57378H0.94932V4.26792ZM0.759456 4.57729H1.32905V4.87964H0.759456V4.57729ZM0.569592 4.87964H1.51891V5.1855H0.569592V4.87964ZM2.84796 4.27144H3.03782V4.57729H2.84796V4.27144ZM2.6581 4.57729H3.22769V4.87964H2.6581V4.57729ZM2.46823 4.87964H3.41755V5.1855H2.46823V4.87964ZM2.6581 6.40542H3.60742V6.71128H2.6581V6.40542ZM2.27837 5.1855H3.60742V5.49136H2.27837V5.1855ZM0.379728 5.1855H1.70878V5.49136H0.379728V5.1855ZM0.569592 6.71128H1.13918V7.01714H0.569592V6.71128ZM0.379728 6.40542H1.32905V6.71128H0.379728V6.40542ZM3.03782 5.80073H3.98714V6.10659H3.03782V5.80073ZM2.84796 6.71479H3.41755V7.02065H2.84796V6.71479Z" fill="#B20000"/>
<path fill-rule="evenodd" clip-rule="evenodd" d="M0.759456 7.01724H0.94932V7.3231H0.759456V7.01724ZM3.03782 7.01724H3.22769V7.3231H3.03782V7.01724ZM0 5.79731H0.94932V6.10317H0V5.79731ZM1.70878 6.40552H2.27837V6.71138H1.70878V6.40552ZM1.89864 6.71489H2.0885V7.02075H1.89864V6.71489ZM1.32905 5.80083H2.6581V6.10669H1.32905V5.80083ZM2.0885 1.21997H2.46823V1.52583H2.0885V1.21997ZM1.70878 1.52583H2.27837V1.83169H1.70878V1.52583ZM1.51891 1.83169H1.89864V2.13403H1.51891V1.83169ZM2.0885 1.83169H2.46823V2.13403H2.0885V1.83169ZM0 1.52583H0.379728V1.83169H0V1.52583ZM0.189864 1.83169H0.569592V2.13403H0.189864V1.83169ZM3.60742 1.52583H3.98714V1.82817H3.60742V1.52583ZM3.41755 1.82817H3.79728V2.13052H3.41755V1.82817ZM0 4.57036H0.189864V4.87622H0V4.57036ZM3.79728 4.57036H3.98714V4.87622H3.79728V4.57036ZM1.70878 7.01372H2.27837V7.31958H1.70878V7.01372ZM1.51891 7.31958H1.89864V7.62192H1.51891V7.31958ZM2.0885 7.31958H2.46823V7.62192H2.0885V7.31958ZM1.32905 7.62192H1.70878V7.92778H1.32905V7.62192ZM2.27837 7.62192H2.6581V7.92778H2.27837V7.62192ZM1.13918 7.92778H1.51891V8.23364H1.13918V7.92778ZM2.46823 7.92778H2.84796V8.23364H2.46823V7.92778ZM0.94932 8.23716H1.32905V8.54302H0.94932V8.23716ZM2.6581 8.23716H3.03782V8.54302H2.6581V8.23716ZM0.569592 8.54302H1.13918V8.84888H0.569592V8.54302ZM2.84796 8.54302H3.41755V8.84888H2.84796V8.54302ZM3.22769 8.23716H3.60742V8.54302H3.22769V8.23716ZM3.41755 7.9313H3.79728V8.23716H3.41755V7.9313ZM3.60742 7.62544H3.98714V7.9313H3.60742V7.62544ZM0.379728 8.23716H0.759456V8.54302H0.379728V8.23716ZM0.189864 7.9313H0.569592V8.23716H0.189864V7.9313ZM0 7.62896H0.379728V7.93481H0V7.62896ZM0.759456 8.85239H0.94932V9.15474H0.759456V8.85239ZM3.03782 8.85239H3.22769V9.15474H3.03782V8.85239ZM1.89864 7.93833H2.0885V8.24067H1.89864V7.93833ZM1.32905 8.85239H1.51891V9.15474H1.32905V8.85239ZM2.46823 8.85239H2.6581V9.15474H2.46823V8.85239ZM1.89864 8.85239H2.0885V9.15474H1.89864V8.85239ZM0 8.85239H0.189864V9.15474H0L0 8.85239ZM3.79728 8.85239H3.98714V9.15474H3.79728V8.85239ZM1.89864 4.57739H2.0885V4.87974H1.89864V4.57739ZM0.94932 1.52583H1.13918V1.83169H0.94932V1.52583ZM2.84796 1.52583H3.03782V1.83169H2.84796V1.52583ZM1.70878 3.65981H2.27837V3.96567H1.70878V3.65981ZM1.32905 3.96567H1.89864V4.27153H1.32905V3.96567ZM1.51891 4.27153H1.70878V4.57739H1.51891V4.27153ZM1.13918 3.65981H1.51891V3.96567H1.13918V3.65981ZM1.32905 3.35747H1.89864V3.65981H1.32905V3.35747ZM1.51891 3.05161H1.70878V3.35747H1.51891V3.05161ZM2.0885 3.35747H2.6581V3.65981H2.0885V3.35747ZM2.27837 3.05161H2.46823V3.35747H2.27837V3.05161ZM2.46823 3.65981H2.84796V3.96567H2.46823V3.65981ZM2.0885 3.96567H2.6581V4.27153H2.0885V3.96567ZM2.27837 4.27153H2.46823V4.57739H2.27837V4.27153ZM3.03782 3.65981H3.41755V3.96567H3.03782V3.65981ZM3.22769 3.35747H3.79728V3.65981H3.22769V3.35747ZM3.60742 3.65981H3.98714V3.96567H3.60742V3.65981ZM3.22769 3.96567H3.79728V4.27153H3.22769V3.96567ZM3.41755 4.27153H3.60742V4.57739H3.41755V4.27153ZM3.41755 3.05161H3.60742V3.35747H3.41755V3.05161ZM0 3.6563H0.379728V3.96216H0V3.6563ZM0.189864 3.35396H0.759456V3.6563H0.189864V3.35396ZM0.569592 3.6563H0.94932V3.96216H0.569592V3.6563ZM0.189864 3.96216H0.759456V4.26802H0.189864V3.96216Z" fill="#B20000"/>
<path fill-rule="evenodd" clip-rule="evenodd" d="M0.379728 4.27144H0.569592V4.57729H0.379728V4.27144ZM0.379728 3.05151H0.569592V3.35737H0.379728V3.05151ZM0.189864 5.49136H0.94932V5.79722H0.189864V5.49136ZM1.13918 5.49136H1.89864V5.79722H1.13918V5.49136ZM2.0885 5.49136H2.84796V5.79722H2.0885V5.49136ZM3.03782 5.49136H3.79728V5.79722H3.03782V5.49136ZM1.51891 6.10308H2.46823V6.40542H1.51891V6.10308ZM0.189864 6.10308H1.13918V6.40542H0.189864V6.10308ZM2.84796 6.10308H3.79728V6.40542H2.84796V6.10308ZM3.79728 7.323H3.98714V7.62534H3.79728V7.323ZM0 7.323H0.189864V7.62534H0V7.323ZM0.189864 17.6941H0.379728V17.3917H0.189864V17.6941ZM0.759456 17.6941H1.32905V17.3917H0.759456V17.6941ZM0.94932 18H1.13918V17.6941H0.94932V18ZM1.89864 18H2.0885V17.6941H1.89864V18ZM2.6581 17.6941H3.22769V17.3882H2.6581V17.6941ZM2.84796 18H3.03782V17.6941H2.84796V18ZM0.569592 17.3882H0.94932V17.0859H0.569592V17.3882ZM1.13918 17.3882H1.51891V17.0859H1.13918V17.3882ZM2.46823 17.3882H2.84796V17.0859H2.46823V17.3882ZM3.03782 17.3882H3.41755V17.0859H3.03782V17.3882ZM1.32905 17.0859H1.70878V16.78H1.32905V17.0859ZM2.27837 17.0859H2.6581V16.78H2.27837V17.0859ZM3.22769 17.0859H3.60742V16.78H3.22769V17.0859ZM3.60742 17.6941H3.79728V17.3882H3.60742V17.6941ZM0.189864 16.78H0.569592V16.4742H0.189864V16.78ZM1.51891 16.78H1.89864V16.4742H1.51891V16.78ZM3.41755 16.78H3.79728V16.4742H3.41755V16.78ZM0.379728 15.866H0.759456V15.5601H0.379728V15.866ZM0.569592 15.5601H0.94932V15.2542H0.569592V15.5601ZM1.32905 15.866H1.70878V15.5601H1.32905V15.866ZM1.13918 15.5601H1.51891V15.2542H1.13918V15.5601ZM0.759456 15.2542H1.32905V14.9484H0.759456V15.2542ZM0.94932 14.9484H1.13918V14.646H0.94932V14.9484ZM2.27837 15.8625H2.6581V15.5601H2.27837V15.8625ZM2.46823 15.5601H2.84796V15.2542H2.46823V15.5601ZM3.22769 15.866H3.60742V15.5601H3.22769V15.866ZM3.03782 15.5601H3.41755V15.2542H3.03782V15.5601ZM2.6581 15.2542H3.22769V14.9484H2.6581V15.2542ZM2.84796 14.9484H3.03782V14.646H2.84796V14.9484ZM1.89864 15.2578H2.0885V14.9519H1.89864V15.2578ZM0 15.2578H0.189864V14.9519H0V15.2578ZM3.79728 15.2578H3.98714V14.9519H3.79728V15.2578ZM0.94932 13.732H1.13918V13.4261H0.94932V13.732ZM0.759456 13.4226H1.32905V13.1203H0.759456V13.4226ZM0.569592 13.1203H1.51891V12.8144H0.569592V13.1203ZM2.84796 13.7285H3.03782V13.4226H2.84796V13.7285Z" fill="#B20000"/>
<path fill-rule="evenodd" clip-rule="evenodd" d="M2.6581 13.4226H3.22769V13.1202H2.6581V13.4226ZM2.46823 13.1202H3.41755V12.8144H2.46823V13.1202ZM2.6581 11.5944H3.60742V11.2851H2.6581V11.5944ZM2.27837 12.8144H3.60742V12.5085H2.27837V12.8144ZM0.379728 12.8144H1.70878V12.5085H0.379728V12.8144ZM0.569592 11.2886H1.13918V10.9827H0.569592V11.2886ZM0.379728 11.5944H1.32905V11.2851H0.379728V11.5944ZM3.03782 12.1991H3.98714V11.8933H3.03782V12.1991ZM2.84796 11.2851H3.41755V10.9792H2.84796V11.2851ZM0 12.1991H0.94932V11.8933H0V12.1991ZM1.70878 11.5909H2.27837V11.2851H1.70878V11.5909ZM1.89864 11.2851H2.0885V10.9792H1.89864V11.2851ZM1.32905 12.1991H2.6581V11.8933H1.32905V12.1991ZM2.0885 16.7765H2.46823V16.4706H2.0885V16.7765ZM1.70878 16.4706H2.27837V16.1718H1.70878V16.4706ZM1.51891 16.1647H1.89864V15.8589H1.51891V16.1647ZM2.0885 16.1647H2.46823V15.8589H2.0885V16.1647ZM0 16.4741H0.379728V16.1718H0V16.4741ZM0.189864 16.1683H0.569592V15.8659H0.189864V16.1683ZM3.60742 16.4741H3.98714V16.1718H3.60742V16.4741ZM3.41755 16.1683H3.79728V15.8659H3.41755V16.1683ZM0 13.4296H0.189864V13.1237H0V13.4296ZM3.79728 13.4296H3.98714V13.1237H3.79728V13.4296ZM1.51891 10.6804H1.89864V10.378H1.51891V10.6804ZM2.0885 10.6804H2.46823V10.378H2.0885V10.6804ZM1.32905 10.378H1.70878V10.0722H1.32905V10.378ZM2.27837 10.378H2.6581V10.0722H2.27837V10.378ZM1.13918 10.0722H1.51891V9.76631H1.13918V10.0722ZM2.46823 10.0722H2.84796V9.76631H2.46823V10.0722ZM0.94932 9.76279H1.32905V9.45693H0.94932V9.76279ZM2.6581 9.76279H3.03782V9.45693H2.6581V9.76279ZM0.569592 9.45693H1.13918V9.15107H0.569592V9.45693ZM2.84796 9.45693H3.41755V9.15107H2.84796V9.45693ZM3.22769 9.76279H3.60742V9.45693H3.22769V9.76279ZM3.41755 10.0687H3.79728V9.76279H3.41755V10.0687ZM3.60742 10.3745H3.98714V10.0687H3.60742V10.3745ZM0.379728 9.76279H0.759456V9.45693H0.379728V9.76279ZM0.189864 10.0687H0.569592V9.76279H0.189864V10.0687ZM0 10.371H0.379728V10.0651H0V10.371ZM0.759456 9.14756H0.94932V8.84521H0.759456V9.14756ZM1.89864 10.0616H2.0885V9.75928H1.89864V10.0616ZM1.89864 13.419H2.0885V13.1167H1.89864V13.419ZM0.94932 16.4706H1.13918V16.1718H0.94932V16.4706ZM2.84796 16.4706H3.03782V16.1718H2.84796V16.4706ZM1.70878 14.3437H2.27837V14.0378H1.70878V14.3437ZM1.32905 14.0378H1.89864V13.7319H1.32905V14.0378ZM1.51891 13.7319H1.70878V13.4261H1.51891V13.7319ZM1.13918 14.3437H1.51891V14.0378H1.13918V14.3437ZM1.32905 14.6425H1.89864V14.3437H1.32905V14.6425ZM1.51891 14.9483H1.70878V14.646H1.51891V14.9483ZM2.0885 14.6425H2.6581V14.3437H2.0885V14.6425ZM2.27837 14.9483H2.46823V14.646H2.27837V14.9483ZM2.46823 14.3401H2.84796V14.0343H2.46823V14.3401ZM2.0885 14.0343H2.6581V13.7284H2.0885V14.0343ZM2.27837 13.7284H2.46823V13.4226H2.27837V13.7284ZM3.03782 14.3437H3.41755V14.0378H3.03782V14.3437ZM3.22769 14.6425H3.79728V14.3437H3.22769V14.6425ZM3.60742 14.3401H3.98714V14.0343H3.60742V14.3401ZM3.22769 14.0343H3.79728V13.7284H3.22769V14.0343ZM3.41755 13.7284H3.60742V13.4226H3.41755V13.7284ZM3.41755 14.9483H3.60742V14.646H3.41755V14.9483ZM0 14.3437H0.379728V14.0378H0V14.3437ZM0.189864 14.6425H0.759456V14.3437H0.189864V14.6425Z" fill="#B20000"/>
<path fill-rule="evenodd" clip-rule="evenodd" d="M0.569592 14.3402H0.94932V14.0344H0.569592V14.3402ZM0.189864 14.0344H0.759456V13.7285H0.189864V14.0344ZM0.379728 13.7285H0.569592V13.4227H0.379728V13.7285ZM0.379728 14.9484H0.569592V14.6461H0.379728V14.9484ZM0.189864 12.5086H0.94932V12.2027H0.189864V12.5086ZM1.13918 12.5086H1.89864V12.2027H1.13918V12.5086ZM2.0885 12.5086H2.84796V12.2027H2.0885V12.5086ZM3.03782 12.5086H3.79728V12.2027H3.03782V12.5086ZM1.51891 11.8969H2.46823V11.5945H1.51891V11.8969ZM0.189864 11.8969H1.13918V11.5945H0.189864V11.8969ZM2.84796 11.8969H3.79728V11.5945H2.84796V11.8969ZM3.79728 10.6805H3.98714V10.3711H3.79728V10.6805ZM0 10.6805H0.189864V10.3711H0V10.6805ZM1.70878 9.15117H1.89864V9.45703H1.70878V9.15117ZM2.0885 9.15117H2.27837V9.45703H2.0885V9.15117ZM2.0885 8.54297H2.27837V8.84883H2.0885V8.54297ZM1.70878 8.54297H1.89864V8.84883H1.70878V8.54297ZM0.379728 16.7801H0.759456V17.0859H0.379728V16.7801ZM3.03782 10.9828H3.22769V10.677H3.03782V10.9828ZM0.759456 10.9828H0.94932V10.677H0.759456V10.9828ZM1.70878 10.677H2.27837V10.9828H1.70878V10.677Z" fill="#B20000"/>
</svg>
