<svg xmlns:dc="http://purl.org/dc/elements/1.1/" xmlns:cc="http://creativecommons.org/ns#" xmlns:rdf="http://www.w3.org/1999/02/22-rdf-syntax-ns#" xmlns:svg="http://www.w3.org/2000/svg" xmlns="http://www.w3.org/2000/svg" version="1.1" viewBox="0 0 100 125" xml:space="preserve" x="0px" y="0px"><path d="m 74.375,7.96875 c -5.283702,0 -9.5625,4.278798 -9.5625,9.5625 0,5.283702 4.278798,9.5625 9.5625,9.5625 5.283702,0 9.5625,-4.278798 9.5625,-9.5625 0,-5.283702 -4.278798,-9.5625 -9.5625,-9.5625 z m -29.71875,10.625 c -1.643157,-0.02482 -3.085286,0.979175 -4.0625,1.78125 l -13.125,10.78125 c -1.784537,1.465229 -2.027819,4.090418 -0.5625,5.875 1.465095,1.784559 4.059213,2.058979 5.84375,0.59375 L 44.0625,28.3125 52.78125,30.125 39.125,51.21875 29.5,63.40625 c -6.811329,-0.270955 -13.095582,-1.082038 -19,-1.625 -2.7777349,-0.256157 -5.2127943,1.753203 -5.46875,4.53125 -0.2557322,2.777981 1.7477032,5.312761 4.53125,5.5 6.923324,0.465706 13.85815,0.909294 20.78125,1.375 1.783419,0.119952 3.095267,0.08945 4.34375,-0.875 0.546114,-0.42198 0.943116,-0.953685 1.375,-1.5 2.532509,-3.203135 7.59375,-9.625 7.59375,-9.625 L 57.4375,70.90625 50.15625,84.9375 c -1.243118,2.389844 -0.327165,5.319494 2.0625,6.5625 2.389666,1.243162 5.319829,0.327143 6.5625,-2.0625 l 9.03125,-17.375 c 0.320112,-0.615814 0.437809,-1.294101 0.53125,-1.9375 0.259756,-1.786393 -0.366446,-3.624711 -1.9375,-4.75 l -13,-9.3125 10.71875,-16.40625 4.78125,8.5 c 0.708405,1.254138 2.013576,2.148761 3.5625,2.1875 6.087499,0.151786 18.25,0.4375 18.25,0.4375 2.308072,0.05767 4.223576,-1.754248 4.28125,-4.0625 0.05767,-2.308251 -1.754427,-4.223599 -4.0625,-4.28125 l -14.28125,-0.34375 -7.25,-12.875 c -1.191703,-2.11795 -4.724265,-6.546135 -7.8125,-7.1875 L 45.375,18.65625 c -0.241481,-0.05019 -0.484013,-0.05896 -0.71875,-0.0625 z" style="" fill="#bdc3c7" fill-opacity="1" fill-rule="nonzero" stroke="none"/></svg>