<svg version="1.1" xmlns="http://www.w3.org/2000/svg" viewBox="0 0 32 192" xmlns:xlink="http://www.w3.org/1999/xlink">
  <defs>
    <style>
      g {
      display: block;
      }
      #icon-vk {
      transform: translatey(32px);
      }
      #icon-ok {
      transform: translatey(64px);
      }

      #icon-inst {
      transform: translatey(96px);
      }

      #icon-tg {
      transform: translatey(128px);
      }

      #icon-tw {
      transform: translatey(160px);
      }

      #icon-yt {
      transform: translatey(192px);
      }

    </style>
   </defs>

  <use xlink:href="#fb" width ="32" height="32"/>
  <use xlink:href="#vk" id="icon-vk" width ="32" height="32"/>
  <use xlink:href="#ok" id="icon-ok" width ="32" height="32"/>
  <use xlink:href="#inst" id="icon-inst" width ="32" height="32"/>
  <use xlink:href="#tg" id="icon-tg" width ="32" height="32"/>
  <use xlink:href="#tw" id="icon-tw" width ="32" height="32"/>
  <use xlink:href="#yt" id="icon-yt" width ="32" height="32"/>



  <symbol id="fb" viewBox="0 0 40 40" fill="currentColor" xmlns="http://www.w3.org/2000/svg" xmlns:xlink="http://www.w3.org/1999/xlink">
    <circle style="fill: #39579F" r="20" cy="20.000001" cx="20" />
    <path style="fill: #FFFFFF" d="m24.3,10.700001c-6.4,0 -6.9,0.6 -6.9,6.3l-2,0l0,3.3l2,0l0,9.6l3.9,0l0,-9.6l2.6,0l0.4,-3.3l-2.9,0c0,0 0,-0.8 0,-1.7s0.3,-1.3 1.5,-1.3s1.5,0 1.5,0l-0.1,-3.3l0,0z" />
  </symbol>

  <symbol id="vk" viewBox="0 0 40 40" fill="currentColor" xmlns="http://www.w3.org/2000/svg" xmlns:xlink="http://www.w3.org/1999/xlink">
    <circle style="fill: #5181B8" r="20" cy="20" cx="20" />
    <path style="fill: #FFFFFF" d="m29.3,15.1c0.2,-0.5 0,-0.8 -0.6,-0.8l-2.1,0c-0.5,0 -0.8,0.3 -0.9,0.6c0,0 -1.1,2.6 -2.6,4.3c-0.5,0.5 -0.7,0.6 -1,0.6c-0.2,0 -0.3,-0.2 -0.3,-0.6l0,-4.2c0,-0.5 -0.2,-0.8 -0.6,-0.8l-3.3,0c-0.3,0 -0.5,0.2 -0.5,0.5c0,0.5 0.8,0.6 0.8,2.1l0,3.2c0,0.7 -0.2,0.8 -0.4,0.8c-0.7,0 -2.5,-2.6 -3.5,-5.6c-0.2,-0.6 -0.4,-0.8 -0.9,-0.8l-2.1,0c-0.6,0 -0.7,0.3 -0.7,0.6c0,0.5 0.7,3.3 3.3,7c1.8,2.5 4.2,3.9 6.4,3.9c1.3,0 1.5,-0.3 1.5,-0.8l0,-2.1c0,-0.6 0.2,-0.7 0.5,-0.7s0.8,0.2 2.1,1.4c1.5,1.5 1.7,2.1 2.5,2.1l2.1,0c0.6,0 0.9,-0.3 0.7,-0.9c-0.2,-0.6 -0.8,-1.5 -1.8,-2.5c-0.5,-0.6 -1.2,-1.2 -1.5,-1.5c-0.3,-0.4 -0.2,-0.6 0,-0.9c0,0 2.7,-3.7 2.9,-4.9z" />
  </symbol>

  <symbol id="ok" viewBox="0 0 40 40" fill="currentColor" xmlns="http://www.w3.org/2000/svg" xmlns:xlink="http://www.w3.org/1999/xlink">
    <circle style="fill: #EF7D01" r="20" cy="20" cx="20" />
    <path style="fill: #FFFFFF" d="m20,9.7c-2.8,0 -5.1,2.3 -5.1,5.1s2.3,5.1 5.1,5.1c2.8,0 5.1,-2.3 5.1,-5.1s-2.3,-5.1 -5.1,-5.1zm0,7.2c-1.1,0 -2.1,-0.9 -2.1,-2.1c0,-1.1 0.9,-2.1 2.1,-2.1s2.1,0.9 2.1,2.1s-0.9,2.1 -2.1,2.1zm2.1,7.2c1.8,-0.4 2.9,-1.2 3.1,-1.3l0,0c0.4,-0.3 0.6,-0.7 0.6,-1.2c0,-0.8 -0.7,-1.5 -1.5,-1.5c-0.3,0 -0.6,0.1 -0.9,0.3l0,0l0,0c0,0 -1.4,0.9 -3.3,0.9s-3.4,-1 -3.5,-1l0,0l0,0c-0.2,-0.2 -0.5,-0.2 -0.8,-0.2c-0.8,0 -1.5,0.7 -1.5,1.5c0,0.5 0.2,1 0.7,1.2l0,0c0.1,0.1 1.2,0.8 3,1.2l-2.8,2.9c-0.6,0.6 -0.5,1.5 0,2.1c0.3,0.3 0.7,0.5 1.1,0.5s0.8,-0.2 1.1,-0.5l2.8,-2.8l2.8,2.8c0.6,0.6 1.5,0.6 2.1,0s0.6,-1.5 0,-2.1l-3,-2.8z" />
  </symbol>

  <symbol id="inst" viewBox="0 0 40 40" fill="currentColor" xmlns="http://www.w3.org/2000/svg" xmlns:xlink="http://www.w3.org/1999/xlink">
    <circle style="fill: #d10869" r="20" cy="20" cx="20" />
    <path style="fill: #FFFFFF" d="m28.4,24.5c0,2.2 -1.8,4 -3.9,4l-8.9,0c-2.2,0 -3.9,-1.8 -3.9,-4l0,-8.9c0,-2.2 1.8,-4 3.9,-4l8.9,0c2.2,0 3.9,1.8 3.9,4l0,8.9zm-4.1,-14.8l-8.7,0c-3.3,0 -5.9,2.7 -5.9,6l0,8.7c0,3.3 2.7,6 5.9,6l6.8,0l1.9,0c3.3,0 5.9,-2.7 5.9,-6l0,-8.7c0.1,-3.3 -2.6,-6 -5.9,-6l0,0zm-4.3,13.8c-1.9,0 -3.5,-1.6 -3.5,-3.5s1.5,-3.5 3.5,-3.5s3.5,1.6 3.5,3.5c0,2 -1.6,3.5 -3.5,3.5m0,-8.8c-2.9,0 -5.3,2.4 -5.3,5.4s2.4,5.4 5.3,5.4c2.9,0 5.3,-2.4 5.3,-5.4s-2.4,-5.4 -5.3,-5.4m5.5,-1.5c-0.7,0 -1.2,0.6 -1.2,1.2c0,0.6 0.6,1.2 1.2,1.2c0.7,0 1.2,-0.6 1.2,-1.2s-0.5,-1.2 -1.2,-1.2" />
  </symbol>

  
  <symbol id="tg" viewBox="0 0 40 40" fill="currentColor" xmlns="http://www.w3.org/2000/svg" xmlns:xlink="http://www.w3.org/1999/xlink">
    <circle style="fill: #2CA5E0" r="20" cy="20" cx="20" />
    <path style="fill: #FFFFFF" d="m10.6,18.5l15.4,-5.7c0.6,-0.2 1.2,0.4 1.1,1.1l-5.6,15.5c-0.2,0.6 -1.1,0.7 -1.3,0.1l-3.6,-6.1c-0.1,-0.1 -0.2,-0.2 -0.3,-0.3l-5.7,-3.2c-0.7,-0.4 -0.5,-1.3 0,-1.4z" />
  </symbol>

  <symbol id="tw" viewBox="0 0 40 40" fill="currentColor" xmlns="http://www.w3.org/2000/svg" xmlns:xlink="http://www.w3.org/1999/xlink">
    <circle style="fill: #1DA1F2" r="20" cy="20" cx="20" />
    <path style="fill: #FFFFFF" d="m16.6,29.1c7.9,0 12.2,-6.5 12.2,-12.2c0,-0.2 0,-0.4 0,-0.6c0.8,-0.6 1.6,-1.4 2.1,-2.2c-0.8,0.3 -1.6,0.6 -2.5,0.7c0.9,-0.5 1.6,-1.4 1.9,-2.4c-0.8,0.5 -1.7,0.8 -2.7,1c-0.8,-0.8 -1.9,-1.3 -3.1,-1.3c-2.4,0 -4.3,1.9 -4.3,4.3c0,0.3 0,0.7 0.1,1c-3.6,-0.2 -6.7,-1.9 -8.8,-4.5c-0.4,0.6 -0.6,1.4 -0.6,2.1c0,1.5 0.8,2.8 1.9,3.6c-0.7,0 -1.4,-0.2 -1.9,-0.5c0,0 0,0 0,0.1c0,2.1 1.5,3.8 3.4,4.2c-0.4,0.1 -0.7,0.2 -1.1,0.2c-0.3,0 -0.5,0 -0.8,-0.1c0.5,1.7 2.1,2.9 4,3c-1.5,1.1 -3.3,1.8 -5.3,1.8c-0.3,0 -0.7,0 -1,-0.1c1.8,1.2 4.1,1.9 6.5,1.9" />
  </symbol>

  <symbol id="yt" viewBox="0 0 40 40" fill="currentColor" xmlns="http://www.w3.org/2000/svg" xmlns:xlink="http://www.w3.org/1999/xlink">
    <circle style="fill: #FF0000" r="20" cy="20" cx="20" />
    <path style="fill: #FFFFFF" d="m30.2,14.8c-0.2,-0.9 -1,-1.6 -1.9,-1.9c-1.7,-0.5 -8.4,-0.5 -8.4,-0.5s-6.7,0 -8.4,0.5c-0.9,0.2 -1.6,1 -1.9,1.9c-0.4,1.7 -0.4,5.1 -0.4,5.1s0,3.5 0.5,5.2c0.2,0.9 1,1.6 1.9,1.9c1.7,0.5 8.4,0.5 8.4,0.5s6.7,0 8.4,-0.5c0.9,-0.2 1.6,-1 1.9,-1.9c0.5,-1.7 0.5,-5.2 0.5,-5.2s-0.1,-3.4 -0.6,-5.1zm-12.3,8.4l0,-6.4l5.5,3.2l-5.5,3.2z" />
  </symbol>

</svg>
