<svg xmlns="http://www.w3.org/2000/svg" xmlns:xlink="http://www.w3.org/1999/xlink" version="1.1" x="0px" y="0px" viewBox="0 0 100 125" enable-background="new 0 0 100 100" fill="#fff" xml:space="preserve"><g><path d="M92.043,14.301c-0.075-0.755-0.536-1.417-1.219-1.748s-1.49-0.285-2.129,0.123c-4.457,2.844-9.591,4.347-14.85,4.347   c-8.749,0-16.803-4.063-22.096-11.146C51.337,5.325,50.688,5,50,5s-1.337,0.325-1.75,0.877   c-5.293,7.083-13.347,11.146-22.096,11.146c-5.261,0-10.395-1.503-14.85-4.347c-0.64-0.408-1.445-0.454-2.128-0.123   c-0.684,0.331-1.145,0.993-1.22,1.748C4.681,47.173,16.03,67.313,26.129,78.419c10.985,12.082,22.654,16.284,23.146,16.457   C49.51,94.959,49.755,95,50,95s0.49-0.041,0.726-0.124c0.491-0.173,12.16-4.375,23.145-16.457   C83.969,67.313,95.318,47.173,92.043,14.301z M70.784,75.319C62.047,84.995,52.646,89.366,50,90.468   c-2.646-1.102-12.047-5.473-20.785-15.148C16.119,60.816,10.34,41.573,12.017,18.087c4.392,2.169,9.216,3.305,14.138,3.305   c9.217,0,17.765-3.885,23.846-10.75c6.081,6.865,14.628,10.75,23.846,10.75c4.921,0,9.745-1.136,14.138-3.305   C89.659,41.573,83.88,60.816,70.784,75.319z"/><path d="M72.056,31.882L45.958,57.979L32.797,44.816c-0.897-0.897-2.35-0.897-3.247,0c-0.896,0.896-0.896,2.35,0,3.246   l14.785,14.786c0.448,0.448,1.035,0.672,1.623,0.672c0.587,0,1.175-0.224,1.623-0.672l27.722-27.72c0.896-0.896,0.896-2.35,0-3.247   C74.406,30.985,72.953,30.985,72.056,31.882z"/></g></svg>