<svg xmlns="http://www.w3.org/2000/svg" xmlns:xlink="http://www.w3.org/1999/xlink" xmlns:sketch="http://www.bohemiancoding.com/sketch/ns" viewBox="0 0 100 125" version="1.1" x="0px" y="0px"><title>4</title><desc>Created with Sketch.</desc><g stroke="none" stroke-width="1" style="fill:#fff;" sketch:type="MSPage"><path d="M15.5480521,74.1248172 C14.473918,74.9860908 13.451893,75.9097969 12.4814854,76.885612 C13.8009251,75.6812055 15.2491626,74.6149369 16.7819543,73.6887728 C22.9612975,69.9551124 30.1523423,68.4060981 37.034174,66.5105096 C44.6666707,64.4084514 52.0710674,61.512468 59.0930036,57.8545131 C63.5704466,55.5223887 67.8905793,52.8849841 72.0052255,49.9599966 C79.0699304,44.9531064 84.1422028,40.0848458 86.5033313,37.7055283 C86.7274984,37.4882435 87.0848876,37.7625532 86.9162707,38.0260479 C86.491533,38.6813434 85.9566782,39.5052558 85.3210464,40.4850037 C84.6716501,41.4603273 83.8556032,42.5428184 82.9520524,43.7875357 C81.0682622,46.2042144 78.6471591,49.1075717 75.5309414,52.1633233 C69.0325534,58.5353715 61.3951408,63.740866 53.0862101,67.4553542 C51.5430949,68.1450614 49.9876898,68.7487394 48.4214697,69.2880186 C40.7339144,71.9357468 32.7922049,73.0305278 24.8524617,75.1109558 C19.7398786,76.4505509 14.6651483,78.2335642 10.8493916,82.13535 C13.6736021,79.8784395 16.738694,78.9365444 20.1803473,77.9494226 C27.8649529,75.7451127 35.8853176,75.0480317 43.7798341,73.7866001 C52.0445213,72.4661773 59.9759074,70.3100437 67.161053,65.9043735 C70.2871026,64.0225497 72.8861629,61.959819 74.9120239,60.0956926 C76.9413261,58.2315661 78.3959543,56.5665355 79.3191689,55.4717545 C79.4931933,55.2702007 79.8196121,55.474704 79.6957303,55.7131274 C79.088611,56.899345 78.1295101,58.7020221 76.5844285,60.8542229 C71.8479152,67.4524047 65.1907422,72.3889969 57.7170306,75.4835845 C53.5787878,77.197283 49.2380082,78.3687527 44.8210313,79.1341654 C42.5537974,79.527441 40.2664081,79.813549 37.9760692,80.01117 C32.8020368,80.4575379 27.587202,80.4624538 22.4446317,81.1870642 C19.5904338,81.5891885 16.3842543,82.2130219 13.4789307,83.3805589 C13.8284544,83.2797821 14.1868268,83.1785136 14.5643714,83.0742955 C19.5869927,81.633432 27.7410711,81.4392521 33.3845763,81.4977519 C36.2078036,81.524298 39.035947,81.5503525 41.7515151,81.5759154 C44.4744572,81.5891885 47.0985888,81.5754238 49.4990449,81.5351131 C54.2960243,81.4544916 58.2022344,81.2465471 60.0840582,81.1467534 C60.2585743,81.1388879 60.3952375,81.6147514 60.2418601,81.7007804 C51.9909375,86.3158699 42.6988178,88.1446015 33.3349252,88.1775383 C32.3758243,88.1809795 31.4162318,88.1657401 30.4566393,88.1323116 C26.4211398,87.9926988 22.3915395,87.686927 18.3530904,87.6230197 C17.1904694,87.6048307 15.5780393,87.4750497 13.9095675,87.4583355 C15.6739003,87.7188806 17.3959559,88.2650422 19.1067048,88.7905567 C22.3143591,89.7752205 25.5637989,90.6748385 28.8850116,91.1851136 C30.5893698,91.4471335 32.3104422,91.6123093 34.035939,91.621158 C35.5131806,91.6285319 37.3969708,90.8291992 38.7345995,91.5026837 C34.9625947,95.4963976 26.6094205,95.5961913 21.7534498,94.1440211 C21.4643922,94.0575005 21.1758262,93.9636059 20.8877518,93.8633206 C16.4761825,92.3315121 12.125571,89.3647391 7.30597822,90.0819755 C6.31443206,90.237811 5.16262608,87.1142194 6.8856649,81.4943107 C7.39790639,79.8248557 8.18642402,78.2492953 9.04425646,76.7287934 C13.1879067,69.3863375 20.7486306,64.2944014 28.005549,60.3940905 C36.2397573,55.9677733 44.8333212,52.3388225 52.7268545,47.2822812 C58.106865,43.8465271 63.3099015,40.0410939 68.1811117,36.1742113 C73.0670697,32.2881566 77.5995712,28.4615848 81.3415887,24.6566431 C83.2106311,22.7536807 84.9140062,20.8762812 86.3647016,19.0190371 C87.8075316,17.1603182 89.0783034,15.3669814 90.0811562,13.6498417 C90.353008,13.23002 90.5722592,12.8003663 90.7998674,12.3864437 C91.0250177,11.9705548 91.2442689,11.5664641 91.4561461,11.1751548 C91.8263168,10.369923 92.2171345,9.62220772 92.5125828,8.90447971 C92.7962328,8.18380214 93.0887316,7.52211591 93.3074911,6.90614796 C93.5159272,6.28378929 93.7032247,5.72435472 93.8684005,5.2322686 C93.9917907,4.86603068 94.5472925,4.95451769 94.5109145,5.34631853 C94.375726,7.29499923 93.9755681,10.2868435 92.7352751,13.9993654 C91.4876082,17.6946814 89.3393401,22.0605324 86.1498748,26.5630467 C78.407261,37.4916846 68.310401,46.7159643 56.9088492,53.8352363 C49.6499644,58.3682294 41.8621239,62.0473228 33.8161963,64.7702649 C32.0548131,65.3660775 30.3706102,65.9918773 28.6534705,66.6992819 C24.0029863,68.6150257 19.484741,70.9682887 15.5480521,74.1248172" fill="#fff" sketch:type="MSShapeGroup"/></g></svg>