<svg width="300" height="34" viewBox="0 0 300 34" fill="none" xmlns="http://www.w3.org/2000/svg">
<path d="M13.7515 0.20752H18.7374L32.4889 33.079H26.5782L23.1202 24.5567H9.04705L5.58906 33.079H0L13.7515 0.20752ZM11.339 19.2811H20.8283L16.1238 7.63403L11.339 19.2811Z" fill="#0B88F2"/>
<path d="M36.0269 0.612469H36.6301C38.5601 0.612469 43.1439 0.490723 45.4761 0.490723C58.3028 0.490723 63.4897 7.91723 63.4897 16.48C63.4897 25.5704 57.3377 33.0781 45.1142 33.0781C43.1841 33.0781 36.5898 33.0781 36.5898 33.0781H36.0269V0.612469ZM41.6562 5.88813V27.8024C43.2243 27.8836 44.511 27.8836 45.3152 27.8836C53.156 27.8836 57.6594 23.4196 57.6594 16.48C57.6594 9.90576 53.1158 5.68522 45.3956 5.68522C44.0687 5.72581 42.9429 5.76639 41.6562 5.88813Z" fill="#0B88F2"/>
<path d="M80.3398 33.4849H76.0374L62.688 0.613403H68.7596L78.4097 24.922L87.6578 0.613403H93.3675L80.3398 33.4849Z" fill="#0B88F2"/>
<path d="M100.764 0.20752H105.79L119.542 33.079H113.631L110.173 24.5567H96.0597L92.6017 33.079H87.0126L100.764 0.20752ZM98.3918 19.2811H107.881L103.177 7.63403L98.3918 19.2811Z" fill="#0B88F2"/>
<path d="M144.032 33.079L126.099 10.3124V33.079H120.872V0.20752H125.455L143.389 23.0958V0.20752H148.616V33.079H144.032Z" fill="#0B88F2"/>
<path d="M153.435 0.613403H179.973V5.88907H169.519V33.079H163.889V5.88907H153.435V0.613403Z" fill="#0B88F2"/>
<path d="M183.474 9.01202C183.474 4.10159 187.254 0.00280762 193.567 0.00280762C197.547 0.00280762 200.885 1.34201 202.815 3.49286L199.759 7.79456C198.191 6.25244 196.622 5.35964 194.009 5.35964C191.194 5.35964 189.465 6.82059 189.465 8.97144C189.465 15.7486 204.142 13.5978 204.142 24.4738C204.142 29.9929 199.357 33.7265 193.325 33.7265C189.144 33.7265 184.318 31.9003 182.71 28.5726L185.967 24.6361C187.857 27.1116 190.913 28.3291 193.406 28.3291C196.1 28.3291 198.11 26.9899 198.11 24.5144C198.15 18.0618 183.474 19.6445 183.474 9.01202Z" fill="#0B88F2"/>
<path d="M230.639 19.2811H215.762V33.079H210.133V0.613403H215.762V14.0055H230.639V0.613403H236.269V33.079H230.639V19.2811Z" fill="#0B88F2"/>
<path d="M257.499 0.00280762C267.109 0.00280762 274.387 6.69884 274.387 16.8443C274.387 26.6652 267.109 33.6859 257.499 33.6859C247.89 33.6859 240.652 26.9899 240.652 16.8443C240.652 7.34815 247.568 0.00280762 257.499 0.00280762ZM257.499 28.3291C264.295 28.3291 268.356 23.2969 268.356 16.8443C268.356 10.0671 263.571 5.35963 257.499 5.35963C251.307 5.35963 246.683 10.0671 246.683 16.8443C246.683 23.3781 251.428 28.3291 257.499 28.3291Z" fill="#0B88F2"/>
<path d="M278.488 33.078V0.20653C280.257 0.20653 285.364 0.125366 287.616 0.125366C297.025 0.125366 300 5.27928 300 10.6767C300 16.277 295.939 21.3498 288.299 21.3498C287.334 21.3498 285.525 21.3498 284.117 21.228V33.078H278.488ZM284.52 5.88801V15.9118C285.846 16.0335 287.254 16.1553 288.54 16.1553C291.918 16.1553 294.572 14.532 294.572 10.8796C294.572 7.47071 292.481 5.80685 288.621 5.80685C287.455 5.76627 286.047 5.80685 284.52 5.88801Z" fill="#0B88F2"/>
</svg>
